<?xml version="1.0" standalone="no"?>
<!DOCTYPE svg PUBLIC "-//W3C//DTD SVG 1.1//EN" "http://www.w3.org/Graphics/SVG/1.1/DTD/svg11.dtd" >
<svg xmlns="http://www.w3.org/2000/svg" xmlns:xlink="http://www.w3.org/1999/xlink" version="1.1">
<metadata></metadata>
<defs>
<font id="mondabold" horiz-adv-x="1024" >
<font-face units-per-em="2048" ascent="1638" descent="-410" />
<missing-glyph horiz-adv-x="555" />
<glyph unicode="&#xfb01;" horiz-adv-x="1348" d="M86 901h143v-901h272v901h214v173h-214v112q0 64 29 102.5t110 38.5h84l-7 189h-126q-188 0 -275 -98t-87 -293v-51h-143v-173zM941 1251h268v254h-268v-254zM948 0h251v1074h-251v-1074z" />
<glyph unicode="&#xfb02;" horiz-adv-x="1512" d="M86 901h143v-901h272v901h214v173h-214v112q0 64 29 102.5t110 38.5h84l-7 189h-126q-188 0 -275 -98t-87 -293v-51h-143v-173zM948 353q0 -197 89 -281t274 -84h114l21 202h-34q-108 0 -150 38.5t-42 128.5v1158h-272v-1162z" />
<glyph horiz-adv-x="0" />
<glyph unicode="&#xd;" horiz-adv-x="600" />
<glyph unicode=" "  horiz-adv-x="555" />
<glyph unicode="&#x09;" horiz-adv-x="555" />
<glyph unicode="&#xa0;" horiz-adv-x="555" />
<glyph unicode="!" horiz-adv-x="648" d="M192 0h250v245h-250v-245zM197 1477q0 -52 20.5 -319t41.5 -508l21 -240h76q100 949 100 1067h-259z" />
<glyph unicode="&#x22;" d="M198 1516l79 -644h119l55 644h-253zM572 1516l58 -644h119l77 644h-254z" />
<glyph unicode="#" horiz-adv-x="1430" d="M104 478h205l-86 -478h206l83 478h257l-86 -478h206l82 478h273v140h-248l48 278h224v140h-199l76 441h-198l-79 -441h-259l76 441h-198l-79 -441h-280v-140h256l-50 -278h-230v-140zM536 618l48 278h259l-50 -278h-257z" />
<glyph unicode="$" horiz-adv-x="1281" d="M120 108q111 -62 264 -98t304 -36q123 0 217 34.5t150.5 96t85 141.5t28.5 176q0 171 -73.5 270t-225.5 145l-251 75q-110 33 -150.5 74t-40.5 117q0 89 61 127t186 38q191 0 384 -91l84 209q-198 115 -494 115q-111 0 -203.5 -25.5t-162 -74.5t-108.5 -127.5t-39 -179.5 t25 -176.5t95 -139t186 -97.5l252 -74q123 -36 163.5 -81t40.5 -114q0 -103 -45.5 -154t-171.5 -51q-237 0 -459 118zM615 -312h110v2070h-110v-2070z" />
<glyph unicode="%" horiz-adv-x="2114" d="M196 1043q0 -89 15 -156t48.5 -118.5t93 -78t143.5 -26.5q164 0 234.5 98t70.5 281v54q-2 185 -71 277.5t-234 92.5t-232.5 -93t-67.5 -278v-53zM356 1029v89q0 45 2 73.5t9.5 59t22.5 47.5t41.5 28t64.5 11q39 0 66 -11t41.5 -28t22.5 -48t10 -59.5t2 -74.5v-87 q0 -45 -2.5 -76.5t-11 -64t-23.5 -51.5t-41.5 -31t-63.5 -12t-63 12t-41 31t-23 51.5t-10.5 63.5t-2.5 77zM694 0h178l538 1446h-173zM1313 360q0 -183 68.5 -281t232.5 -98t234 98t70 281v54q-2 185 -70.5 277.5t-233.5 92.5q-166 0 -233.5 -93t-67.5 -278v-53zM1473 346 v89q0 45 2 73.5t9.5 59t22.5 47.5t41.5 28t65.5 11t65.5 -11t41.5 -28t22.5 -48t9.5 -59.5t2 -74.5v-87q0 -45 -2.5 -76.5t-11 -64t-23.5 -51.5t-41 -31t-63 -12t-63.5 12t-41.5 31t-23 51.5t-10.5 63.5t-2.5 77z" />
<glyph unicode="&#x26;" horiz-adv-x="1526" d="M148 460q0 -180 54.5 -284t181.5 -153.5t350 -49.5q184 0 289 31.5t163 98.5l128 -126l160 173l-169 159q26 84 26 240v273h-235v-291q0 -17 -1 -31l-457 451q-76 79 -96.5 111t-20.5 87q0 39 9 65t33.5 48t73 32.5t122.5 10.5q44 0 73 -1.5t57 -5t44.5 -10.5t30.5 -18 t21 -27.5t11 -38.5t4 -52v-42h238v83q0 175 -110.5 244t-376.5 69t-380 -82.5t-114 -258.5q0 -107 43 -182.5t132 -157.5q-148 -44 -216 -130t-68 -235zM420 466q0 45 1.5 69t8.5 56t21.5 50t41 35t66.5 28l434 -425q-13 -29 -38.5 -47t-65.5 -25.5t-71.5 -9.5t-83.5 -2 q-98 0 -157.5 13t-95 46t-48.5 82t-13 130z" />
<glyph unicode="'" horiz-adv-x="769" d="M258 1516l79 -644h119l55 644h-253z" />
<glyph unicode="(" horiz-adv-x="946" d="M208 420q0 -109 17.5 -195.5t58.5 -160t106 -121.5t163 -75t226 -27h3v215q-109 0 -170.5 27t-93 100.5t-31.5 206.5v630q0 134 32 208.5t93.5 102.5t169.5 28v216h-3q-129 0 -227 -27.5t-162.5 -77t-105.5 -124t-58.5 -162.5t-17.5 -198v-566z" />
<glyph unicode=")" horiz-adv-x="946" d="M181 57v-216h3q128 0 226.5 27.5t163 77t105.5 124t58 162.5t17 198v566q0 137 -28.5 239.5t-93 181t-176.5 118.5t-272 40h-3v-216q109 0 170.5 -27t93 -100t31.5 -207v-630q0 -134 -32 -208t-93.5 -102t-169.5 -28z" />
<glyph unicode="*" horiz-adv-x="998" d="M86 911l80 -161l273 174l-29 -325h178l-29 313l247 -190l95 153l-280 142l291 117l-81 161l-273 -174l30 325h-178l28 -313l-247 190l-95 -153l280 -142z" />
<glyph unicode="+" horiz-adv-x="966" d="M132 487h269v-331h164v331h269v162h-269v319h-164v-319h-269v-162z" />
<glyph unicode="," horiz-adv-x="768" d="M223 0h165q0 -92 -47.5 -188.5t-98.5 -154.5l107 -46q64 58 130 183.5t66 258.5v223h-322v-276z" />
<glyph unicode="-" horiz-adv-x="968" d="M132 494h704v148h-704v-148z" />
<glyph unicode="." horiz-adv-x="634" d="M164 0h298v284h-298v-284z" />
<glyph unicode="/" d="M106 0h243l569 1516h-243z" />
<glyph unicode="0" horiz-adv-x="1420" d="M150 505q0 -103 33.5 -195t100 -167t178.5 -119t257 -44q114 0 207.5 30t156.5 80t105.5 118.5t62 144t19.5 156.5v451q0 84 -18.5 160.5t-60.5 145.5t-104.5 119.5t-157 80.5t-210.5 30q-118 0 -215 -29.5t-161.5 -79.5t-109 -118.5t-64 -144.5t-19.5 -160v-459z M450 500v472q0 43 6.5 81.5t25 79t47.5 70t78 48.5t112 19q78 0 132.5 -27.5t81.5 -74t38 -94t11 -102.5v-472q0 -42 -6.5 -80.5t-25 -78.5t-47 -69.5t-76 -48t-108.5 -18.5t-109 18.5t-77.5 48t-48.5 69.5t-26.5 79t-7.5 80z" />
<glyph unicode="1" horiz-adv-x="1379" d="M245 1404l26 -217l339 54v-1032h-361v-209h984v209h-326v1267h-205z" />
<glyph unicode="2" horiz-adv-x="1379" d="M202 992h300q0 155 48 215t167 60q82 0 128.5 -54t46.5 -155q0 -88 -32.5 -158.5t-121.5 -162.5l-497 -511l36 -226h888v235h-561l308 291q142 135 204.5 255.5t62.5 278.5q0 200 -117 318t-353 118q-146 0 -244 -29.5t-156 -94t-82.5 -155.5t-24.5 -225z" />
<glyph unicode="3" horiz-adv-x="1379" d="M215 436q5 -222 129 -339t361 -117q246 0 378.5 115.5t132.5 330.5q0 139 -61 230.5t-174 123.5q107 23 164.5 106.5t57.5 214.5q0 191 -128.5 293t-367.5 102q-233 0 -359 -120t-127 -343h279q-1 116 53.5 177.5t157.5 61.5q99 0 152 -48t53 -137q0 -107 -61 -158.5 t-218 -51.5v-199q161 0 223.5 -58.5t62.5 -180.5q0 -238 -215 -238q-211 0 -214 235h-279z" />
<glyph unicode="4" horiz-adv-x="1379" d="M170 282h669v-282h237v282h220v246h-220v334h-237v-334h-345l430 948h-305l-449 -945v-249z" />
<glyph unicode="5" horiz-adv-x="1379" d="M186 126q74 -54 224 -100t307 -46q255 0 406 135.5t151 358.5q0 207 -130.5 345t-348.5 138q-86 0 -167 -21.5t-126 -68.5l41 363h618v246h-842l-81 -765l214 -107q109 103 290 103q105 0 173.5 -63.5t68.5 -170.5q0 -270 -283 -270q-232 0 -436 122z" />
<glyph unicode="6" horiz-adv-x="1379" d="M188 459q0 -222 141 -350.5t382 -128.5q249 0 395 125t146 341q0 133 -31 226.5t-94 150t-151 82t-209 25.5q-23 0 -76 -9t-80 -17l322 573h-320l-290 -512q-135 -258 -135 -506zM472 458q0 268 249 268q138 0 198 -68.5t60 -197.5q0 -120 -68.5 -190.5t-185.5 -70.5 q-116 0 -184.5 70t-68.5 189z" />
<glyph unicode="7" horiz-adv-x="1379" d="M224 1244h674l-544 -1244h314l554 1270v206h-998v-232z" />
<glyph unicode="8" horiz-adv-x="1379" d="M144 372q0 -185 143.5 -288.5t399.5 -103.5q265 0 407 101.5t142 292.5q0 288 -332 409q148 47 221.5 138.5t73.5 206.5q0 80 -28 144.5t-87 116t-159.5 79.5t-235.5 28q-134 0 -235.5 -28t-162.5 -78t-90.5 -114t-29.5 -142q0 -123 70.5 -213.5t215.5 -137.5 q-153 -67 -233 -167t-80 -244zM417 391q0 83 66.5 152t204.5 129q138 -60 204.5 -129t66.5 -152q0 -90 -63 -144t-207 -54q-272 0 -272 198zM451 1119q0 80 54 125t184 45q235 0 235 -170q0 -75 -55 -131t-181 -119q-131 63 -184 117t-53 133z" />
<glyph unicode="9" horiz-adv-x="1379" d="M167 1037q0 -132 31.5 -223.5t96 -145t152 -76.5t209.5 -23q26 0 76.5 6t75.5 14l-322 -589h320l290 528q135 258 135 496q0 227 -135.5 349.5t-387.5 122.5q-261 0 -401 -119t-140 -340zM452 1037q0 118 65.5 181.5t186.5 63.5q113 0 174 -63t61 -180 q0 -144 -50.5 -200.5t-181.5 -56.5q-144 0 -199.5 55t-55.5 200z" />
<glyph unicode=":" horiz-adv-x="769" d="M170 197h298v284h-298v-284zM170 854h298v284h-298v-284z" />
<glyph unicode=";" horiz-adv-x="769" d="M170 854h298v284h-298v-284zM237 198h165q0 -92 -47.5 -188.5t-98.5 -154.5l107 -46q64 58 130 183.5t66 258.5v223h-322v-276z" />
<glyph unicode="&#x3c;" d="M112 445l744 -414v231l-563 294l563 294v231l-744 -417v-219z" />
<glyph unicode="=" horiz-adv-x="880" d="M112 371h656v173h-656v-173zM112 740h656v173h-656v-173z" />
<glyph unicode="&#x3e;" d="M152 31l744 415v219l-744 416v-233l563 -292l-563 -296v-229z" />
<glyph unicode="?" horiz-adv-x="1244" d="M130 962h274v85q0 41 2 67t9 55.5t21 47t37.5 33t59.5 22.5t86 7q54 0 93 -13t60.5 -33t34 -51.5t16 -59.5t3.5 -66q0 -88 -29.5 -155.5t-103.5 -160.5l-248 -309h229l182 151q140 116 201 225.5t61 259.5q0 51 -5 94t-19 89t-37.5 81.5t-61.5 68.5t-89.5 54.5t-124 34 t-162.5 12.5q-91 0 -163 -12t-123 -32t-88 -53.5t-59 -69.5t-34.5 -87t-17 -99t-4.5 -112v-74zM429 0h249v245h-249v-245z" />
<glyph unicode="@" horiz-adv-x="2048" d="M240 348q0 -825 844 -825q292 0 681 102l-58 203q-280 -59 -415 -73q-98 -11 -183 -11q-108 0 -196.5 17t-168 60.5t-133 112.5t-85 177.5t-31.5 251.5v378q0 108 12 191.5t34 144.5t59.5 104t80 70t104.5 42.5t125.5 21t149.5 5.5q79 0 140.5 -8.5t107 -24.5t78 -43 t53 -59t32 -78.5t16 -96t4.5 -115.5q-310 -76 -350 -86q-106 -28 -182 -62t-120.5 -68.5t-69.5 -78t-32.5 -82t-7.5 -90.5q0 -175 116.5 -275t290.5 -100q118 0 225 44t155 111q14 -31 23 -47.5t27.5 -39t40 -34t56 -20t79.5 -8.5h106l20 200q-69 0 -88 28t-19 107l-2 469 q0 117 -15 207t-49.5 166t-90.5 128t-139 88.5t-194.5 53.5t-256.5 17q-407 0 -590.5 -188t-183.5 -565v-422zM983 445q0 85 47.5 135.5t178.5 85.5q40 10 160 43t123 35v-367q-7 -38 -109.5 -74t-196.5 -36q-91 0 -147 42.5t-56 135.5z" />
<glyph unicode="A" horiz-adv-x="1540" d="M84 0h307l86 281h584l83 -281h312l-492 1476h-394zM536 479l238 766l230 -766h-468z" />
<glyph unicode="B" horiz-adv-x="1492" d="M212 0h640q268 0 391 103t123 325v20q0 77 -11 134t-38 105t-77.5 77.5t-125.5 39.5q109 28 148.5 95t40.5 189q0 104 -24 173.5t-82.5 119.5t-160.5 72.5t-256 22.5h-568v-1476zM509 208v495h318q65 0 110.5 -12.5t71 -32t39.5 -53.5t18 -67t4 -83q0 -81 -9.5 -126 t-41 -74t-82 -38t-140.5 -9h-288zM509 882v391h252q104 0 153 -15.5t67.5 -53.5t18.5 -119q0 -46 -2.5 -73t-12.5 -55t-29.5 -42.5t-54 -23.5t-85.5 -9h-307z" />
<glyph unicode="C" horiz-adv-x="1509" d="M168 484q0 -95 13.5 -166t53.5 -138.5t107.5 -110.5t179.5 -69t266 -26q108 0 193.5 13t146 36t104.5 59.5t70.5 76.5t41.5 94.5t20.5 106.5t5.5 120v27h-291v-47q0 -80 -13 -128t-48.5 -77t-87.5 -38.5t-141 -9.5q-88 0 -145 10.5t-99.5 37.5t-61 75.5t-18.5 123.5v558 q0 147 75.5 201.5t247.5 54.5q170 0 230.5 -54t60.5 -208v-75l291 34v18q0 81 -8.5 142.5t-30.5 123.5t-63.5 105.5t-104.5 78t-157.5 51.5t-217.5 17q-129 0 -229 -17.5t-167 -52.5t-112 -79.5t-69 -107t-33.5 -125t-9.5 -142.5v-493z" />
<glyph unicode="D" horiz-adv-x="1564" d="M212 0h641q151 0 259 37t169 107t88 159t27 205v453q0 91 -15 165t-53.5 140.5t-99 111.5t-156 71.5t-220.5 26.5h-640v-1476zM509 231v1014h318q149 0 210.5 -60t61.5 -185v-530q0 -127 -60 -183t-212 -56h-318z" />
<glyph unicode="E" horiz-adv-x="1316" d="M212 0h978v224h-682v422h595v214h-595v392h671v224h-967v-1476z" />
<glyph unicode="F" horiz-adv-x="1195" d="M212 0h297v634h555v213h-555v402h596v227h-893v-1476z" />
<glyph unicode="G" horiz-adv-x="1623" d="M168 484q0 -92 17 -165t61.5 -139.5t117 -110.5t188 -69.5t269.5 -25.5q90 0 162.5 16.5t113 38.5t70 52.5t40 49.5t16.5 39l47 -170h157v757h-566v-195h298v-108q0 -75 -20.5 -123.5t-65 -75.5t-104 -37.5t-148.5 -10.5t-150 10.5t-109.5 37t-72 76t-23.5 123.5v558 q0 144 88.5 200t266.5 56q173 0 243 -51.5t70 -195.5v-59l292 22v23q0 65 -6.5 117t-24 104.5t-46.5 92t-75 74.5t-109 57.5t-149.5 35.5t-194.5 13q-155 0 -271 -26.5t-188 -71.5t-116 -113.5t-61 -143t-17 -169.5v-493z" />
<glyph unicode="H" horiz-adv-x="1668" d="M212 0h298v615h648v-615h298v1476h-298v-628h-648v628h-298v-1476z" />
<glyph unicode="I" horiz-adv-x="1148" d="M158 0h832v222h-267v1033h267v221h-832v-221h269v-1033h-269v-222z" />
<glyph unicode="J" horiz-adv-x="1222" d="M70 67q196 -92 434 -92q250 0 391 117.5t141 329.5v1054h-805v-226h508v-809q0 -104 -61 -168t-193 -64q-78 0 -175.5 22t-170.5 56z" />
<glyph unicode="K" horiz-adv-x="1470" d="M212 0h297v541l139 138l465 -679h335l-554 804l517 672h-328l-574 -716v716h-297v-1476z" />
<glyph unicode="L" horiz-adv-x="1194" d="M212 0h914v232h-617v1244h-297v-1476z" />
<glyph unicode="M" horiz-adv-x="1918" d="M212 0h278v1087l370 -658h199l369 662v-1091h278v1476h-333l-414 -715l-420 715h-327v-1476z" />
<glyph unicode="N" horiz-adv-x="1678" d="M212 0h267v996l764 -996h223v1476h-264v-1012l-767 1012h-223v-1476z" />
<glyph unicode="O" horiz-adv-x="1622" d="M168 501q0 -93 16.5 -167.5t61 -143.5t116.5 -115t188.5 -73.5t271.5 -27.5q148 0 260.5 29t182 78t113 120.5t60 147.5t16.5 168v431q0 95 -16.5 172.5t-59.5 150.5t-112.5 122t-182 78.5t-261.5 29.5q-156 0 -272.5 -28t-188.5 -74.5t-116 -117.5t-60.5 -146.5 t-16.5 -171.5v-462zM466 468v535q0 145 90.5 205t265.5 60q172 0 253 -60.5t81 -204.5v-535q0 -146 -79.5 -203.5t-254.5 -57.5q-178 0 -267 58t-89 203z" />
<glyph unicode="P" horiz-adv-x="1408" d="M212 0h297v509h253q145 0 242.5 29t157 91.5t85 153t25.5 222.5q0 247 -117 359t-364 112h-579v-1476zM509 726v539h310q51 0 86 -20.5t54 -59.5t27 -86t8 -109q0 -141 -38.5 -202.5t-146.5 -61.5h-300z" />
<glyph unicode="Q" horiz-adv-x="1622" d="M168 501q0 -85 14 -154t50 -134.5t94.5 -112t152 -79t217.5 -42.5l322 -513l189 108l-245 407q142 16 241 64.5t152.5 123.5t76 159t22.5 189v431q0 95 -16.5 172.5t-59.5 150.5t-112.5 122t-182 78.5t-261.5 29.5q-156 0 -272.5 -28t-188.5 -74.5t-116 -117.5 t-60.5 -146.5t-16.5 -171.5v-462zM466 468v535q0 145 90.5 205t265.5 60q172 0 253 -60.5t81 -204.5v-535q0 -146 -79.5 -203.5t-254.5 -57.5q-178 0 -267 58t-89 203z" />
<glyph unicode="R" horiz-adv-x="1524" d="M212 0h297v583h334l259 -583h308l-285 626q53 21 92 53.5t62.5 69.5t38 85t19.5 95t5 106q0 106 -22.5 182.5t-76.5 137t-152.5 91t-241.5 30.5h-637v-1476zM509 795v470h377q43 0 74.5 -14t50 -36.5t29.5 -55.5t14.5 -65t3.5 -72q0 -108 -39.5 -167.5t-144.5 -59.5h-365 z" />
<glyph unicode="S" horiz-adv-x="1281" d="M120 108q111 -62 264 -98t304 -36q123 0 217 34.5t150.5 96t85 141.5t28.5 176q0 171 -73.5 270t-225.5 145l-251 75q-110 33 -150.5 74t-40.5 117q0 89 61 127t186 38q191 0 384 -91l84 209q-198 115 -494 115q-111 0 -203.5 -25.5t-162 -74.5t-108.5 -127.5t-39 -179.5 t25 -176.5t95 -139t186 -97.5l252 -74q123 -36 163.5 -81t40.5 -114q0 -103 -45.5 -154t-171.5 -51q-237 0 -459 118z" />
<glyph unicode="T" horiz-adv-x="1194" d="M38 1250h411v-1250h296v1250h411v226h-1118v-226z" />
<glyph unicode="U" horiz-adv-x="1606" d="M192 468q0 -90 15.5 -160.5t57.5 -135t110.5 -106.5t178.5 -67t258 -25q145 0 253.5 26.5t174 70t105.5 110.5t54.5 138t14.5 161v997h-297v-1022q0 -140 -71.5 -194t-233.5 -54q-164 0 -243.5 54.5t-79.5 193.5v1022h-297v-1009z" />
<glyph unicode="V" horiz-adv-x="1484" d="M40 1476l524 -1476h360l520 1476h-315l-381 -1189l-394 1189h-314z" />
<glyph unicode="W" horiz-adv-x="2014" d="M70 1476l377 -1476h266l290 1053l316 -1053h249l376 1476h-282l-228 -1010l-313 1010h-249l-272 -1021l-249 1021h-281z" />
<glyph unicode="X" horiz-adv-x="1352" d="M38 0h310l321 501l318 -501h327l-484 749l467 727h-328l-300 -479l-310 479h-309l463 -728z" />
<glyph unicode="Y" horiz-adv-x="1340" d="M18 1476l509 -909v-567h296v567l499 909h-300l-345 -617l-346 617h-313z" />
<glyph unicode="Z" horiz-adv-x="1222" d="M122 0h1018v210h-672l660 1087v179h-981v-218h637l-662 -1081v-177z" />
<glyph unicode="[" horiz-adv-x="842" d="M212 -89h482v161h-209v1359h209v161h-482v-1681z" />
<glyph unicode="\" d="M106 1516l569 -1516h243l-569 1516h-243z" />
<glyph unicode="]" horiz-adv-x="842" d="M146 72v-161h482v1681h-482v-161h210v-1359h-210z" />
<glyph unicode="^" horiz-adv-x="1257" d="M80 511h237l305 601l304 -601h227l-408 772h-259z" />
<glyph unicode="_" horiz-adv-x="904" d="M8 -32h883v175h-883v-175z" />
<glyph unicode="`" horiz-adv-x="556" d="M76 1583l233 -365h149l-114 365h-268z" />
<glyph unicode="a" horiz-adv-x="1174" d="M112 278q0 -137 85 -219t226 -82q231 0 334 153q25 -69 83.5 -103.5t172.5 -34.5h92l11 198q-73 0 -93 22t-20 96v425q0 176 -100.5 270t-330.5 94q-214 0 -321 -90.5t-107 -251.5v-32h255v42q0 69 36 105.5t131 36.5q92 0 130.5 -26.5t38.5 -90.5q0 -57 -18.5 -78.5 t-66.5 -38.5l-198 -71q-185 -66 -262.5 -142.5t-77.5 -181.5zM373 289q0 102 147 160l215 84v-244q-37 -57 -111.5 -92.5t-129.5 -35.5q-54 0 -87.5 30.5t-33.5 97.5z" />
<glyph unicode="b" horiz-adv-x="1232" d="M170 0h187l27 65q132 -88 281 -88q194 0 310.5 97t116.5 255v424q0 56 -13.5 105.5t-44.5 93.5t-77 76t-116.5 50.5t-158.5 18.5q-131 0 -240 -57v476h-272v-1516zM442 216v641q105 50 191 50q93 0 140 -35.5t47 -113.5v-435q0 -78 -54 -116.5t-146 -38.5q-115 0 -178 48 z" />
<glyph unicode="c" horiz-adv-x="1158" d="M140 327q0 -60 11 -108.5t41.5 -95t79.5 -77.5t129.5 -50t187.5 -19q131 0 213.5 19.5t132.5 69t70 123t22 191.5h-254q0 -57 -5 -92.5t-15.5 -60.5t-32.5 -37t-50.5 -17t-74.5 -5q-96 0 -139.5 35t-43.5 119v434q0 80 46 115.5t137 35.5q75 0 110.5 -17t50.5 -64 t16 -147l256 20q0 114 -27.5 192t-85.5 123t-137 64t-193 19q-211 0 -328 -89.5t-117 -250.5v-430z" />
<glyph unicode="d" horiz-adv-x="1228" d="M140 324q0 -166 106.5 -256.5t320.5 -90.5q155 0 278 86l29 -63h184v1516h-272v-457q-104 38 -200 38q-225 0 -335.5 -93.5t-110.5 -250.5v-429zM412 320v439q0 79 50 113.5t147 34.5q99 0 177 -37v-659q-72 -43 -187 -43q-93 0 -140 36t-47 116z" />
<glyph unicode="e" horiz-adv-x="1181" d="M140 336q0 -100 34.5 -172t99 -111.5t144.5 -57.5t184 -18q90 0 154.5 8t122.5 30.5t93.5 61.5t57.5 102t24 151h-252q-1 -34 -6.5 -60t-12 -43.5t-21.5 -29t-27 -18t-36 -9.5t-41.5 -3.5t-50.5 -0.5q-107 0 -151 27.5t-44 116.5v175h643v260q0 352 -457 352 q-212 0 -335 -90t-123 -252v-419zM412 651v121q0 79 50 107t143 28q37 0 62.5 -2t52 -9.5t42.5 -21t26 -38t10 -59.5v-126h-386z" />
<glyph unicode="f" horiz-adv-x="778" d="M86 901h143v-901h272v901h214v173h-214v112q0 64 29 102.5t110 38.5h84l-7 189h-126q-188 0 -275 -98t-87 -293v-51h-143v-173z" />
<glyph unicode="g" horiz-adv-x="1243" d="M140 366q0 -157 112 -245.5t307 -88.5q150 0 244 56v-118q0 -111 -53 -161.5t-170 -50.5q-138 0 -289 42l-56 -185q55 -26 153.5 -41t201.5 -15q485 0 485 429v1087h-202l-23 -78q-53 43 -134.5 71.5t-166.5 28.5q-110 0 -191 -27.5t-127.5 -77t-68.5 -109.5t-22 -132 v-385zM412 356v401q0 79 48 114.5t144 35.5q85 0 142 -25.5t57 -49.5v-571q-66 -48 -199 -48q-192 0 -192 143z" />
<glyph unicode="h" horiz-adv-x="1272" d="M170 0h272v738q0 73 65.5 114.5t147.5 41.5q183 0 183 -138v-756h272v795q0 137 -89.5 219.5t-242.5 82.5q-112 0 -207 -35.5t-129 -91.5v545h-272v-1515z" />
<glyph unicode="i" horiz-adv-x="570" d="M163 1251h268v254h-268v-254zM170 0h251v1074h-251v-1074z" />
<glyph unicode="j" horiz-adv-x="673" d="M10 -135l6 -194h109q192 0 283 95.5t91 263.5v1044h-273v-1031q0 -34 -7.5 -63t-25 -56.5t-53 -43t-85.5 -15.5h-45zM229 1251h268v254h-268v-254z" />
<glyph unicode="k" horiz-adv-x="1211" d="M170 0h272v374l120 123l336 -497h297l-422 611l404 463h-310l-425 -472v914h-272v-1516z" />
<glyph unicode="l" horiz-adv-x="734" d="M170 353q0 -197 89 -281t274 -84h114l21 202h-34q-108 0 -150 38.5t-42 128.5v1158h-272v-1162z" />
<glyph unicode="m" horiz-adv-x="1912" d="M168 0h272v739q0 73 71 115.5t154 42.5q74 0 117 -28.5t43 -106.5v-762h272v750q6 67 76.5 107t151.5 40q72 0 112.5 -28.5t40.5 -106.5v-762h272v794q0 136 -93.5 219.5t-247.5 83.5q-224 0 -357 -133q-80 133 -295 133q-82 0 -154.5 -24.5t-106.5 -48t-56 -46.5v96 h-272v-1074z" />
<glyph unicode="n" horiz-adv-x="1272" d="M168 0h272v735q0 74 64 116.5t145 42.5q35 0 66 -6t60 -20.5t46 -43.5t17 -69v-755h272v770q0 148 -87.5 238.5t-249.5 90.5q-194 0 -333 -120v95h-272v-1074z" />
<glyph unicode="o" horiz-adv-x="1212" d="M140 325q0 -168 110.5 -258t355.5 -90q128 0 219.5 24t145 70.5t77.5 108.5t24 145v423q0 164 -123 256.5t-343 92.5q-221 0 -343.5 -92t-122.5 -257v-423zM412 313v447q0 147 194 147q96 0 145 -34t49 -113v-447q0 -147 -194 -147q-97 0 -145.5 34t-48.5 113z" />
<glyph unicode="p" horiz-adv-x="1210" d="M168 -410h272v427q90 -40 205 -40q110 0 196 28.5t138.5 77.5t79.5 110.5t27 132.5v425q0 157 -108.5 251.5t-300.5 94.5q-165 0 -292 -93l-27 70h-190v-1484zM440 213v628q26 26 78 46t113 20q183 0 183 -152v-435q0 -154 -192 -154q-94 0 -182 47z" />
<glyph unicode="q" horiz-adv-x="1210" d="M124 317q0 -71 22.5 -130t70 -107.5t129.5 -75.5t191 -27q135 0 233 56v-443h272v1484h-203l-19 -69q-48 40 -122 66t-155 26q-194 0 -306.5 -94t-112.5 -253v-433zM396 308v448q0 151 192 151q138 0 182 -68v-619q-2 -5 -21.5 -17t-64.5 -24.5t-96 -12.5q-96 0 -144 32 t-48 110z" />
<glyph unicode="r" horiz-adv-x="855" d="M160 0h272v720q10 40 75.5 72t143.5 47.5t154 19.5l6 231q-7 1 -24 1q-90 0 -206.5 -41.5t-148.5 -103.5v128h-272v-1074z" />
<glyph unicode="s" horiz-adv-x="1048" d="M136 61q220 -81 408 -81q86 0 156 18.5t125 56t85 100.5t30 148q0 129 -54.5 205t-187.5 118l-222 70q-74 22 -74 96q0 57 32 86t119 29q73 0 160.5 -21.5t138.5 -48.5l64 169q-176 88 -383 88q-83 0 -151.5 -17t-123 -52.5t-85.5 -96.5t-31 -143q0 -110 51.5 -184.5 t170.5 -111.5l236 -74q91 -29 91 -108q0 -25 -5.5 -46t-19.5 -44.5t-45 -37t-76 -13.5q-166 0 -354 80z" />
<glyph unicode="t" horiz-adv-x="860" d="M50 901h170v-560q0 -105 20.5 -171.5t72 -108t130.5 -57.5t204 -16h97l10 202h-62q-91 0 -133 16t-54.5 49t-12.5 105v541h255v173h-255v345h-239l-25 -345h-178v-173z" />
<glyph unicode="u" horiz-adv-x="1269" d="M162 291q0 -142 96.5 -228.5t260.5 -86.5q107 0 197.5 40t120.5 102l8 -118h256v1074h-272v-724q0 -83 -64 -125.5t-149 -42.5q-73 0 -127.5 38t-54.5 115v739h-272v-783z" />
<glyph unicode="v" horiz-adv-x="1171" d="M68 1074l382 -1074h289l364 1074h-257l-251 -808l-256 808h-271z" />
<glyph unicode="w" horiz-adv-x="1692" d="M68 1074l297 -1074h258l229 741l220 -741h266l286 1074h-253l-179 -779l-232 779h-221l-225 -770l-192 770h-254z" />
<glyph unicode="x" horiz-adv-x="1118" d="M54 0h289l224 338l226 -338h271l-362 536l360 538h-277l-223 -336l-223 336h-284l369 -534z" />
<glyph unicode="y" horiz-adv-x="1120" d="M50 1074l404 -1038q-16 -61 -30 -102t-33 -74t-39 -52t-51 -33.5t-65.5 -21.5t-86.5 -13l20 -205q90 8 150 20t115.5 41t92 66.5t77 108t74.5 154t80 215.5l326 934h-270l-223 -721l-279 721h-262z" />
<glyph unicode="z" horiz-adv-x="995" d="M121 0h759v190h-464l454 720v164h-746v-186h447l-450 -721v-167z" />
<glyph unicode="{" horiz-adv-x="992" d="M188 595q59 0 92 -6t57.5 -26t33 -56t8.5 -98v-87q0 -130 20 -211.5t73 -137.5t142.5 -78.5t231.5 -22.5v174q-65 0 -102.5 10t-56 38t-23.5 61t-5 97v117q0 153 -37 237.5t-124 115.5q160 51 160 358v130q0 58 4.5 86.5t24 50.5t56 28.5t103.5 6.5v174q-73 0 -123 -2.5 t-100 -10t-82 -20.5t-62 -35t-47 -52t-30 -73.5t-18 -97.5t-5 -126v-103q0 -121 -39.5 -162t-151.5 -41v-238z" />
<glyph unicode="|" horiz-adv-x="768" d="M262 -126h244v1734h-244v-1734z" />
<glyph unicode="}" horiz-adv-x="991" d="M177 46v-174q142 0 231.5 22.5t142.5 78.5t73 137.5t20 211.5v87q0 62 8.5 98t33 56t57.5 26t92 6v238q-112 0 -151.5 41t-39.5 162v103q0 72 -5 126t-18 97.5t-30 73.5t-47 52t-62 35t-82 20.5t-100 10t-123 2.5v-174q67 0 103.5 -6.5t56 -28.5t24 -50.5t4.5 -86.5v-130 q0 -307 160 -358q-87 -31 -124 -115.5t-37 -237.5v-117q0 -64 -5 -97t-23.5 -61t-56 -38t-102.5 -10z" />
<glyph unicode="~" d="M90 1147h108q0 61 30.5 107t93.5 46q26 0 70 -26.5t86.5 -58t101.5 -58t111 -26.5q103 0 173 90t70 229h-109q0 -61 -30.5 -106.5t-92.5 -45.5q-26 0 -70.5 26t-87 58t-101.5 58t-111 26q-103 0 -172.5 -89.5t-69.5 -229.5z" />
<glyph unicode="&#xa1;" horiz-adv-x="648" d="M192 -403h259q0 52 -20.5 319t-41.5 508l-21 240h-76q-100 -949 -100 -1067zM206 829h250v245h-250v-245z" />
<glyph unicode="&#xa2;" horiz-adv-x="1107" d="M140 327q0 -60 11 -108.5t41.5 -95t79.5 -77.5t129.5 -50t187.5 -19q131 0 213.5 19.5t132.5 69t70 123t22 191.5h-254q0 -57 -5 -92.5t-15.5 -60.5t-32.5 -37t-50.5 -17t-74.5 -5q-96 0 -139.5 35t-43.5 119v434q0 80 46 115.5t137 35.5q75 0 110.5 -17t50.5 -64 t16 -147l256 20q0 114 -27.5 192t-85.5 123t-137 64t-193 19q-211 0 -328 -89.5t-117 -250.5v-430zM538 71v-285h93v285h-93zM538 1006h93v285h-93v-285z" />
<glyph unicode="&#xa3;" horiz-adv-x="1285" d="M134 621h122l-50 -621h918v226h-608l34 395h493v191h-476l19 232q8 114 54 175.5t155 61.5q113 0 264 -67l71 201q-63 42 -160.5 71t-198.5 29q-240 0 -353.5 -116t-126.5 -338l-20 -249h-137v-191z" />
<glyph unicode="&#xa4;" horiz-adv-x="1126" d="M124 987l132 -95q-40 -80 -40 -169q0 -90 38 -164l-128 -92l48 -84l135 97q94 -99 251 -99q155 0 251 104l139 -101l52 81l-138 98q35 70 35 160q0 89 -37 163l137 100l-47 81l-143 -103q-93 100 -249 100q-155 0 -249 -96l-134 99zM368 723q0 82 49.5 138.5t142.5 56.5 q91 0 139.5 -56.5t48.5 -138.5t-48.5 -138.5t-139.5 -56.5q-93 0 -142.5 56.5t-49.5 138.5z" />
<glyph unicode="&#xa5;" horiz-adv-x="1304" d="M18 1476l509 -909v-567h296v567l499 909h-300l-345 -617l-346 617h-313zM278 231h742v134h-742v-134zM278 533h742v134h-742v-134z" />
<glyph unicode="&#xa6;" horiz-adv-x="769" d="M280 -120h209v710h-209v-710zM280 800h209v676h-209v-676z" />
<glyph unicode="&#xa7;" horiz-adv-x="1085" d="M124 112q76 -62 187.5 -98t244.5 -36q185 0 285 91.5t100 234.5q0 71 -20.5 117t-63.5 84q106 98 106 211q0 76 -53.5 145t-161.5 120l-261 123q-44 21 -63.5 42.5t-19.5 59.5q0 49 40 75.5t107 26.5q136 0 289 -90l84 159q-63 48 -166 84t-229 36q-178 0 -278.5 -76 t-100.5 -229q0 -64 22.5 -109.5t69.5 -83.5q-51 -38 -80 -92.5t-29 -114.5q0 -74 47 -140.5t146 -114.5l261 -126q57 -28 79.5 -56t22.5 -69q0 -50 -45 -80t-120 -30q-144 0 -306 105zM318 848q0 25 14 54t28 39l301 -144q32 -14 53 -31t30.5 -37t12.5 -37t3 -40 q0 -41 -22 -73l-335 154q-47 20 -66 47t-19 68z" />
<glyph unicode="&#xa8;" horiz-adv-x="967" d="M115 1244h264v233h-264v-233zM624 1244h265v233h-265v-233z" />
<glyph unicode="&#xa9;" horiz-adv-x="1776" d="M152 722q0 -206 97.5 -375t266 -265t372.5 -96q154 0 290.5 56.5t234 154t154.5 234t57 291.5q0 205 -96.5 373.5t-265.5 264.5t-374 96q-204 0 -372.5 -96t-266 -264.5t-97.5 -373.5zM261 722q0 180 80.5 326t225 229.5t323.5 83.5q180 0 324 -83.5t224 -229.5t80 -326 q0 -181 -80 -327t-224 -229.5t-324 -83.5q-179 0 -323.5 83.5t-225 230t-80.5 326.5zM547 590q0 -72 15 -123.5t52.5 -94t108.5 -64t176 -21.5q81 0 140 16t94 42.5t56 67.5t28 84.5t7 100.5v34h-116v-61q0 -112 -46 -153.5t-163 -41.5q-120 0 -176 43t-56 152v319 q0 110 56.5 155.5t174.5 45.5q115 0 162.5 -44t47.5 -157v-64l116 10v25q0 75 -12.5 128t-46 99.5t-100.5 70t-167 23.5q-105 0 -176 -22.5t-108 -67t-52 -97.5t-15 -127v-278z" />
<glyph unicode="&#xaa;" d="M134 785q0 -123 66.5 -195t183.5 -72l2 -1q87 0 156.5 41t110.5 98q27 -65 64 -95t120 -30h85l18 170q-52 0 -69 23.5t-17 87.5v354q0 151 -81 231.5t-267 80.5q-173 0 -259 -77.5t-86 -215.5v-27h205v36q0 59 29 90.5t106 31.5q72 0 102.5 -27.5t30.5 -84.5 q0 -25 -3.5 -43t-15 -32.5t-20.5 -23t-33.5 -18.5t-39 -15t-53 -16.5t-60.5 -18.5q-87 -28 -141 -53.5t-84 -56.5t-40 -63t-10 -79zM344 801q0 87 119 123q130 39 170 78v-232q-27 -44 -77 -65t-97 -21h-1q-55 0 -84.5 30.5t-29.5 86.5z" />
<glyph unicode="&#xab;" d="M67 530l280 -450l140 70l-207 380l207 380l-147 70zM481 530l280 -450l138 70l-205 380l205 380l-145 70z" />
<glyph unicode="&#xac;" d="M129 587h576v-361h148v531h-724v-170z" />
<glyph unicode="&#xad;" horiz-adv-x="968" d="M132 494h704v148h-704v-148z" />
<glyph unicode="&#xae;" horiz-adv-x="1776" d="M152 722q0 -206 97.5 -375t266 -265t372.5 -96q154 0 290.5 56.5t234 154t154.5 234t57 291.5q0 205 -96.5 373.5t-265.5 264.5t-374 96q-204 0 -372.5 -96t-266 -264.5t-97.5 -373.5zM261 722q0 180 80.5 326t225 229.5t323.5 83.5q180 0 324 -83.5t224 -229.5t80 -326 q0 -181 -80 -327t-224 -229.5t-324 -83.5q-179 0 -323.5 83.5t-225 230t-80.5 326.5zM592 319h131v333h259l180 -333h128l-184 347q152 41 152 228v14q-6 245 -263 245h-403v-834zM723 742v320h276q127 0 127 -161v-24q-2 -135 -136 -135h-267z" />
<glyph unicode="&#xaf;" horiz-adv-x="511" d="M-47 1251h604v157h-604v-157z" />
<glyph unicode="&#xb0;" horiz-adv-x="974" d="M128 1180q0 -65 23 -123.5t67 -105t114 -74t157 -27.5q168 0 262.5 97t94.5 233q0 137 -94.5 234t-262.5 97q-170 0 -265.5 -97t-95.5 -234zM288 1181q0 79 51.5 134t149.5 55q96 0 147.5 -55t51.5 -134q0 -80 -51.5 -134.5t-147.5 -54.5q-98 0 -149.5 54.5t-51.5 134.5z " />
<glyph unicode="&#xb1;" d="M171 0h682v165h-682v-165zM171 591h258v-265h166v265h258v164h-258v263h-166v-263h-258v-164z" />
<glyph unicode="&#xb2;" horiz-adv-x="1005" d="M134 1256h201q0 104 37.5 141.5t132.5 37.5q79 0 114.5 -35.5t35.5 -105.5q0 -55 -26.5 -97.5t-103.5 -109.5l-360 -315l24 -148h639v149h-428l243 198q108 88 155 159t47 165q0 129 -85.5 208t-262.5 79q-196 0 -279.5 -76t-83.5 -250z" />
<glyph unicode="&#xb3;" horiz-adv-x="927" d="M140 918q2 -155 88.5 -232.5t243.5 -77.5t245 65.5t88 200.5q0 94 -40.5 150.5t-127.5 79.5q78 15 116.5 73t38.5 141q0 137 -88 200.5t-238 63.5q-320 0 -321 -306h189q0 85 28.5 120.5t103.5 35.5q74 0 103 -32.5t29 -89.5q0 -77 -41.5 -106.5t-168.5 -29.5v-140 q128 0 172.5 -33.5t44.5 -121.5q0 -61 -33.5 -90t-105.5 -29q-74 0 -104 36.5t-32 121.5h-190z" />
<glyph unicode="&#xb4;" horiz-adv-x="554" d="M106 1218h149l233 365h-268z" />
<glyph unicode="&#xb5;" horiz-adv-x="1246" d="M148 -236h252v238q84 -21 152 -21q100 0 167 41t96 113l6 -135h267v1074h-273v-757q0 -70 -65.5 -110.5t-147.5 -40.5q-75 0 -128.5 33t-53.5 109v766h-272v-1310z" />
<glyph unicode="&#xb6;" horiz-adv-x="1222" d="M95 1173q0 -151 99.5 -232.5t252.5 -82.5v-858h172v1334h231v-1334h172v1476h-560q-75 0 -139.5 -17.5t-116.5 -52.5t-81.5 -95t-29.5 -138z" />
<glyph unicode="&#xb7;" horiz-adv-x="512" d="M264 780h248v245h-248v-245z" />
<glyph unicode="&#xb8;" horiz-adv-x="512" d="M120 -358v-117q45 -9 95 -9q117 0 181 53.5t64 129.5q0 77 -44.5 134.5t-146.5 75.5l-6 101h-106v-172q69 -2 107 -37t38 -80q0 -39 -30 -62.5t-87 -23.5q-31 0 -65 7z" />
<glyph unicode="&#xb9;" horiz-adv-x="1127" d="M210 1509l17 -143l270 35v-640h-284v-137h728v137h-249v795h-135z" />
<glyph unicode="&#xba;" d="M136 811q0 -145 89.5 -222t287.5 -77q202 1 288.5 77.5t86.5 221.5v364q0 141 -99 220.5t-277 79.5q-179 0 -277.5 -79.5t-98.5 -220.5v-364zM352 802v385q0 127 158 127q78 0 117.5 -29.5t39.5 -97.5v-385q0 -127 -156 -127h-2q-79 0 -118 29.5t-39 97.5z" />
<glyph unicode="&#xbb;" d="M154 150l145 -70l273 450l-280 450l-138 -70l205 -380zM566 150l147 -70l273 450l-280 450l-140 -70l207 -380z" />
<glyph unicode="&#xbc;" horiz-adv-x="2433" d="M128 1424l18 -145l252 39v-749h-268l1 -147h725v147h-246v908h-146zM849 0h174l641 1505h-174zM1477 210h501v-210h159v210h168v163h-168v242h-159v-242h-299l269 701h-191l-280 -705v-159z" />
<glyph unicode="&#xbd;" horiz-adv-x="2579" d="M128 1424l18 -145l252 39v-749h-268l1 -147h725v147h-246v908h-146zM879 0h174l641 1505h-174zM1652 706h218q0 120 29.5 162.5t127.5 42.5q75 0 107.5 -34.5t32.5 -107.5q0 -67 -31.5 -123t-102.5 -128l-355 -359l45 -161h647v162h-437l233 226q106 103 160.5 189 t54.5 192q0 304 -356 304q-209 0 -291 -85.5t-82 -279.5z" />
<glyph unicode="&#xbe;" horiz-adv-x="2882" d="M245 773q4 -180 86.5 -258t281.5 -78q100 0 171.5 24.5t110 69t55.5 96.5t17 117q0 97 -37 159.5t-127 86.5q48 10 80.5 32.5t48 56t21 66t5.5 74.5q0 132 -86.5 204.5t-252.5 72.5q-90 0 -155 -16t-115 -53.5t-75 -105t-25 -165.5h185v6q0 111 35 146.5t142 35.5 q90 0 126 -33t36 -102q0 -37 -2.5 -56t-13 -40.5t-33 -31t-62 -16t-100.5 -6.5v-142q92 0 138.5 -17t62.5 -50t16 -97q0 -84 -31.5 -123t-121.5 -39q-56 0 -89 6t-59 24.5t-36.5 55t-11.5 96.5h-185zM889 0h174l641 1505h-174zM1517 210h501v-210h159v210h168v163h-168v242 h-159v-242h-299l269 701h-191l-280 -705v-159z" />
<glyph unicode="&#xbf;" horiz-adv-x="1244" d="M108 151q0 -51 5 -94t19 -89t37.5 -81.5t61.5 -68.5t89.5 -54.5t124 -34t162.5 -12.5q91 0 163 12t123 32t88 53.5t59 69.5t34.5 87t17 99t4.5 112v74h-274v-85q0 -41 -2 -67t-9 -55.5t-21 -47t-37.5 -33t-59.5 -22.5t-86 -7q-54 0 -93 13t-60.5 33t-34 51.5t-16 59.5 t-3.5 66q0 88 29.5 155.5t103.5 160.5l248 309h-229l-182 -151q-140 -116 -201 -225.5t-61 -259.5zM548 973h249v245h-249v-245z" />
<glyph unicode="&#xc0;" horiz-adv-x="1540" d="M84 0h307l86 281h584l83 -281h312l-492 1476h-394zM460 1985l233 -365h149l-114 365h-268zM536 479l238 766l230 -766h-468z" />
<glyph unicode="&#xc1;" horiz-adv-x="1540" d="M84 0h307l86 281h584l83 -281h312l-492 1476h-394zM536 479l238 766l230 -766h-468zM720 1620h149l233 365h-268z" />
<glyph unicode="&#xc2;" horiz-adv-x="1540" d="M84 0h307l86 281h584l83 -281h312l-492 1476h-394zM445 1618h230l106 143l98 -143h225l-210 298h-225zM536 479l238 766l230 -766h-468z" />
<glyph unicode="&#xc3;" horiz-adv-x="1540" d="M84 0h307l86 281h584l83 -281h312l-492 1476h-394zM464 1893q0 -260 200 -260q52 0 95 16t66 35.5t46 35.5t40 16q56 0 56 -87h118q0 260 -200 260q-52 0 -95 -16t-64.5 -35t-43 -35t-37.5 -16q-63 0 -63 86h-118zM536 479l238 766l230 -766h-468z" />
<glyph unicode="&#xc4;" horiz-adv-x="1540" d="M84 0h307l86 281h584l83 -281h312l-492 1476h-394zM401 1646h264v233h-264v-233zM536 479l238 766l230 -766h-468zM910 1646h265v233h-265v-233z" />
<glyph unicode="&#xc5;" horiz-adv-x="1540" d="M84 0h307l86 281h584l83 -281h312l-492 1476h-394zM536 479l238 766l230 -766h-468zM550 1796q0 -101 61 -157t169 -56t169 56t61 157t-61 156.5t-169 55.5t-169 -55.5t-61 -156.5zM662 1797q0 68 31 95.5t86 27.5q119 0 119 -125q0 -67 -31 -94.5t-87 -27.5t-87 28 t-31 96z" />
<glyph unicode="&#xc6;" horiz-adv-x="1834" d="M83 0h310l79 281h421v-281h817v227h-537v418h457v213h-457v391h527v228h-1161zM527 477l230 772h136v-772h-366z" />
<glyph unicode="&#xc7;" horiz-adv-x="1509" d="M168 484q0 -95 13.5 -166t53.5 -138.5t107.5 -110.5t179.5 -69t266 -26q108 0 193.5 13t146 36t104.5 59.5t70.5 76.5t41.5 94.5t20.5 106.5t5.5 120v27h-291v-47q0 -80 -13 -128t-48.5 -77t-87.5 -38.5t-141 -9.5q-88 0 -145 10.5t-99.5 37.5t-61 75.5t-18.5 123.5v558 q0 147 75.5 201.5t247.5 54.5q170 0 230.5 -54t60.5 -208v-75l291 34v18q0 81 -8.5 142.5t-30.5 123.5t-63.5 105.5t-104.5 78t-157.5 51.5t-217.5 17q-129 0 -229 -17.5t-167 -52.5t-112 -79.5t-69 -107t-33.5 -125t-9.5 -142.5v-493zM690 -358v-117q45 -9 95 -9 q117 0 181 53.5t64 129.5q0 77 -44.5 134.5t-146.5 75.5l-6 101h-106v-172q69 -2 107 -37t38 -80q0 -39 -30 -62.5t-87 -23.5q-31 0 -65 7z" />
<glyph unicode="&#xc8;" horiz-adv-x="1316" d="M212 0h978v224h-682v422h595v214h-595v392h671v224h-967v-1476zM422 1985l233 -365h149l-114 365h-268z" />
<glyph unicode="&#xc9;" horiz-adv-x="1316" d="M212 0h978v224h-682v422h595v214h-595v392h671v224h-967v-1476zM682 1620h149l233 365h-268z" />
<glyph unicode="&#xca;" horiz-adv-x="1316" d="M212 0h978v224h-682v422h595v214h-595v392h671v224h-967v-1476zM407 1618h230l106 143l98 -143h225l-210 298h-225z" />
<glyph unicode="&#xcb;" horiz-adv-x="1316" d="M212 0h978v224h-682v422h595v214h-595v392h671v224h-967v-1476zM363 1646h264v233h-264v-233zM872 1646h265v233h-265v-233z" />
<glyph unicode="&#xcc;" horiz-adv-x="1148" d="M158 0h832v222h-267v1033h267v221h-832v-221h269v-1033h-269v-222zM275 1985l233 -365h149l-114 365h-268z" />
<glyph unicode="&#xcd;" horiz-adv-x="1148" d="M158 0h832v222h-267v1033h267v221h-832v-221h269v-1033h-269v-222zM535 1620h149l233 365h-268z" />
<glyph unicode="&#xce;" horiz-adv-x="1148" d="M158 0h832v222h-267v1033h267v221h-832v-221h269v-1033h-269v-222zM260 1618h230l106 143l98 -143h225l-210 298h-225z" />
<glyph unicode="&#xcf;" horiz-adv-x="1148" d="M158 0h832v222h-267v1033h267v221h-832v-221h269v-1033h-269v-222zM216 1646h264v233h-264v-233zM725 1646h265v233h-265v-233z" />
<glyph unicode="&#xd0;" horiz-adv-x="1564" d="M31 706h704v148h-704v-148zM212 0h641q151 0 259 37t169 107t88 159t27 205v453q0 91 -15 165t-53.5 140.5t-99 111.5t-156 71.5t-220.5 26.5h-640v-1476zM509 231v1014h318q149 0 210.5 -60t61.5 -185v-530q0 -127 -60 -183t-212 -56h-318z" />
<glyph unicode="&#xd1;" horiz-adv-x="1678" d="M212 0h267v996l764 -996h223v1476h-264v-1012l-767 1012h-223v-1476zM547 1893q0 -260 200 -260q52 0 95 16t66 35.5t46 35.5t40 16q56 0 56 -87h118q0 260 -200 260q-52 0 -95 -16t-64.5 -35t-43 -35t-37.5 -16q-63 0 -63 86h-118z" />
<glyph unicode="&#xd2;" horiz-adv-x="1622" d="M168 501q0 -93 16.5 -167.5t61 -143.5t116.5 -115t188.5 -73.5t271.5 -27.5q148 0 260.5 29t182 78t113 120.5t60 147.5t16.5 168v431q0 95 -16.5 172.5t-59.5 150.5t-112.5 122t-182 78.5t-261.5 29.5q-156 0 -272.5 -28t-188.5 -74.5t-116 -117.5t-60.5 -146.5 t-16.5 -171.5v-462zM466 468v535q0 145 90.5 205t265.5 60q172 0 253 -60.5t81 -204.5v-535q0 -146 -79.5 -203.5t-254.5 -57.5q-178 0 -267 58t-89 203zM501 1985l233 -365h149l-114 365h-268z" />
<glyph unicode="&#xd3;" horiz-adv-x="1622" d="M168 501q0 -93 16.5 -167.5t61 -143.5t116.5 -115t188.5 -73.5t271.5 -27.5q148 0 260.5 29t182 78t113 120.5t60 147.5t16.5 168v431q0 95 -16.5 172.5t-59.5 150.5t-112.5 122t-182 78.5t-261.5 29.5q-156 0 -272.5 -28t-188.5 -74.5t-116 -117.5t-60.5 -146.5 t-16.5 -171.5v-462zM466 468v535q0 145 90.5 205t265.5 60q172 0 253 -60.5t81 -204.5v-535q0 -146 -79.5 -203.5t-254.5 -57.5q-178 0 -267 58t-89 203zM761 1620h149l233 365h-268z" />
<glyph unicode="&#xd4;" horiz-adv-x="1622" d="M168 501q0 -93 16.5 -167.5t61 -143.5t116.5 -115t188.5 -73.5t271.5 -27.5q148 0 260.5 29t182 78t113 120.5t60 147.5t16.5 168v431q0 95 -16.5 172.5t-59.5 150.5t-112.5 122t-182 78.5t-261.5 29.5q-156 0 -272.5 -28t-188.5 -74.5t-116 -117.5t-60.5 -146.5 t-16.5 -171.5v-462zM466 468v535q0 145 90.5 205t265.5 60q172 0 253 -60.5t81 -204.5v-535q0 -146 -79.5 -203.5t-254.5 -57.5q-178 0 -267 58t-89 203zM486 1618h230l106 143l98 -143h225l-210 298h-225z" />
<glyph unicode="&#xd5;" horiz-adv-x="1622" d="M168 501q0 -93 16.5 -167.5t61 -143.5t116.5 -115t188.5 -73.5t271.5 -27.5q148 0 260.5 29t182 78t113 120.5t60 147.5t16.5 168v431q0 95 -16.5 172.5t-59.5 150.5t-112.5 122t-182 78.5t-261.5 29.5q-156 0 -272.5 -28t-188.5 -74.5t-116 -117.5t-60.5 -146.5 t-16.5 -171.5v-462zM466 468v535q0 145 90.5 205t265.5 60q172 0 253 -60.5t81 -204.5v-535q0 -146 -79.5 -203.5t-254.5 -57.5q-178 0 -267 58t-89 203zM505 1893q0 -260 200 -260q52 0 95 16t66 35.5t46 35.5t40 16q56 0 56 -87h118q0 260 -200 260q-52 0 -95 -16 t-64.5 -35t-43 -35t-37.5 -16q-63 0 -63 86h-118z" />
<glyph unicode="&#xd6;" horiz-adv-x="1622" d="M168 501q0 -93 16.5 -167.5t61 -143.5t116.5 -115t188.5 -73.5t271.5 -27.5q148 0 260.5 29t182 78t113 120.5t60 147.5t16.5 168v431q0 95 -16.5 172.5t-59.5 150.5t-112.5 122t-182 78.5t-261.5 29.5q-156 0 -272.5 -28t-188.5 -74.5t-116 -117.5t-60.5 -146.5 t-16.5 -171.5v-462zM442 1646h264v233h-264v-233zM466 468v535q0 145 90.5 205t265.5 60q172 0 253 -60.5t81 -204.5v-535q0 -146 -79.5 -203.5t-254.5 -57.5q-178 0 -267 58t-89 203zM951 1646h265v233h-265v-233z" />
<glyph unicode="&#xd7;" horiz-adv-x="1025" d="M154 344l111 -128l248 242l248 -242l110 128l-237 232l237 230l-110 131l-248 -243l-248 243l-111 -131l238 -230z" />
<glyph unicode="&#xd8;" horiz-adv-x="1606" d="M168 501q0 -93 16.5 -167.5t61 -143.5t116.5 -115t188.5 -73.5t271.5 -27.5q148 0 260.5 29t182 78t113 120.5t60 147.5t16.5 168v431q0 95 -16.5 172.5t-59.5 150.5t-112.5 122t-182 78.5t-261.5 29.5q-156 0 -272.5 -28t-188.5 -74.5t-116 -117.5t-60.5 -146.5 t-16.5 -171.5v-462zM417 -194l87 -23l723 1892l-87 23zM466 468v535q0 145 90.5 205t265.5 60q172 0 253 -60.5t81 -204.5v-535q0 -146 -79.5 -203.5t-254.5 -57.5q-178 0 -267 58t-89 203z" />
<glyph unicode="&#xd9;" horiz-adv-x="1606" d="M192 468q0 -90 15.5 -160.5t57.5 -135t110.5 -106.5t178.5 -67t258 -25q145 0 253.5 26.5t174 70t105.5 110.5t54.5 138t14.5 161v997h-297v-1022q0 -140 -71.5 -194t-233.5 -54q-164 0 -243.5 54.5t-79.5 193.5v1022h-297v-1009zM504 1985l233 -365h149l-114 365h-268z " />
<glyph unicode="&#xda;" horiz-adv-x="1606" d="M192 468q0 -90 15.5 -160.5t57.5 -135t110.5 -106.5t178.5 -67t258 -25q145 0 253.5 26.5t174 70t105.5 110.5t54.5 138t14.5 161v997h-297v-1022q0 -140 -71.5 -194t-233.5 -54q-164 0 -243.5 54.5t-79.5 193.5v1022h-297v-1009zM764 1620h149l233 365h-268z" />
<glyph unicode="&#xdb;" horiz-adv-x="1606" d="M192 468q0 -90 15.5 -160.5t57.5 -135t110.5 -106.5t178.5 -67t258 -25q145 0 253.5 26.5t174 70t105.5 110.5t54.5 138t14.5 161v997h-297v-1022q0 -140 -71.5 -194t-233.5 -54q-164 0 -243.5 54.5t-79.5 193.5v1022h-297v-1009zM489 1618h230l106 143l98 -143h225 l-210 298h-225z" />
<glyph unicode="&#xdc;" horiz-adv-x="1606" d="M192 468q0 -90 15.5 -160.5t57.5 -135t110.5 -106.5t178.5 -67t258 -25q145 0 253.5 26.5t174 70t105.5 110.5t54.5 138t14.5 161v997h-297v-1022q0 -140 -71.5 -194t-233.5 -54q-164 0 -243.5 54.5t-79.5 193.5v1022h-297v-1009zM445 1646h264v233h-264v-233zM954 1646 h265v233h-265v-233z" />
<glyph unicode="&#xdd;" horiz-adv-x="1340" d="M18 1476l509 -909v-567h296v567l499 909h-300l-345 -617l-346 617h-313zM633 1620h149l233 365h-268z" />
<glyph unicode="&#xde;" horiz-adv-x="1362" d="M216 0h297v356h265q195 0 301 43.5t149.5 139.5t43.5 272q0 125 -26 207.5t-85 131.5t-143.5 69.5t-211.5 20.5h-293v236h-297v-1476zM513 567v466h321q100 0 135 -56t35 -180q0 -137 -34.5 -183.5t-144.5 -46.5h-312z" />
<glyph unicode="&#xdf;" horiz-adv-x="1286" d="M140 0h310v1129q0 93 40 141t143 48q64 0 107 -18t62.5 -51t26.5 -65t7 -74q0 -45 -9 -80.5t-31.5 -68t-67.5 -50.5t-110 -18v-190q56 -6 94 -12.5t75.5 -19t60 -31.5t41 -48.5t26.5 -71.5t8 -98q0 -127 -70.5 -190t-248.5 -63l18 -189q157 0 272.5 31t184 88t101 132 t32.5 169q0 349 -333 419q117 32 176.5 115t59.5 188q0 84 -26.5 151t-83.5 121t-156.5 83.5t-235.5 29.5q-233 0 -353 -104.5t-120 -284.5v-1118z" />
<glyph unicode="&#xe0;" horiz-adv-x="1174" d="M112 278q0 -137 85 -219t226 -82q231 0 334 153q25 -69 83.5 -103.5t172.5 -34.5h92l11 198q-73 0 -93 22t-20 96v425q0 176 -100.5 270t-330.5 94q-214 0 -321 -90.5t-107 -251.5v-32h255v42q0 69 36 105.5t131 36.5q92 0 130.5 -26.5t38.5 -90.5q0 -57 -18.5 -78.5 t-66.5 -38.5l-198 -71q-185 -66 -262.5 -142.5t-77.5 -181.5zM273 1583l233 -365h149l-114 365h-268zM373 289q0 102 147 160l215 84v-244q-37 -57 -111.5 -92.5t-129.5 -35.5q-54 0 -87.5 30.5t-33.5 97.5z" />
<glyph unicode="&#xe1;" horiz-adv-x="1174" d="M112 278q0 -137 85 -219t226 -82q231 0 334 153q25 -69 83.5 -103.5t172.5 -34.5h92l11 198q-73 0 -93 22t-20 96v425q0 176 -100.5 270t-330.5 94q-214 0 -321 -90.5t-107 -251.5v-32h255v42q0 69 36 105.5t131 36.5q92 0 130.5 -26.5t38.5 -90.5q0 -57 -18.5 -78.5 t-66.5 -38.5l-198 -71q-185 -66 -262.5 -142.5t-77.5 -181.5zM373 289q0 102 147 160l215 84v-244q-37 -57 -111.5 -92.5t-129.5 -35.5q-54 0 -87.5 30.5t-33.5 97.5zM533 1218h149l233 365h-268z" />
<glyph unicode="&#xe2;" horiz-adv-x="1174" d="M112 278q0 -137 85 -219t226 -82q231 0 334 153q25 -69 83.5 -103.5t172.5 -34.5h92l11 198q-73 0 -93 22t-20 96v425q0 176 -100.5 270t-330.5 94q-214 0 -321 -90.5t-107 -251.5v-32h255v42q0 69 36 105.5t131 36.5q92 0 130.5 -26.5t38.5 -90.5q0 -57 -18.5 -78.5 t-66.5 -38.5l-198 -71q-185 -66 -262.5 -142.5t-77.5 -181.5zM258 1216h230l106 143l98 -143h225l-210 298h-225zM373 289q0 102 147 160l215 84v-244q-37 -57 -111.5 -92.5t-129.5 -35.5q-54 0 -87.5 30.5t-33.5 97.5z" />
<glyph unicode="&#xe3;" horiz-adv-x="1174" d="M112 278q0 -137 85 -219t226 -82q231 0 334 153q25 -69 83.5 -103.5t172.5 -34.5h92l11 198q-73 0 -93 22t-20 96v425q0 176 -100.5 270t-330.5 94q-214 0 -321 -90.5t-107 -251.5v-32h255v42q0 69 36 105.5t131 36.5q92 0 130.5 -26.5t38.5 -90.5q0 -57 -18.5 -78.5 t-66.5 -38.5l-198 -71q-185 -66 -262.5 -142.5t-77.5 -181.5zM277 1491q0 -260 200 -260q52 0 95 16t66 35.5t46 35.5t40 16q56 0 56 -87h118q0 260 -200 260q-52 0 -95 -16t-64.5 -35t-43 -35t-37.5 -16q-63 0 -63 86h-118zM373 289q0 102 147 160l215 84v-244 q-37 -57 -111.5 -92.5t-129.5 -35.5q-54 0 -87.5 30.5t-33.5 97.5z" />
<glyph unicode="&#xe4;" horiz-adv-x="1174" d="M112 278q0 -137 85 -219t226 -82q231 0 334 153q25 -69 83.5 -103.5t172.5 -34.5h92l11 198q-73 0 -93 22t-20 96v425q0 176 -100.5 270t-330.5 94q-214 0 -321 -90.5t-107 -251.5v-32h255v42q0 69 36 105.5t131 36.5q92 0 130.5 -26.5t38.5 -90.5q0 -57 -18.5 -78.5 t-66.5 -38.5l-198 -71q-185 -66 -262.5 -142.5t-77.5 -181.5zM214 1244h264v233h-264v-233zM373 289q0 102 147 160l215 84v-244q-37 -57 -111.5 -92.5t-129.5 -35.5q-54 0 -87.5 30.5t-33.5 97.5zM723 1244h265v233h-265v-233z" />
<glyph unicode="&#xe5;" horiz-adv-x="1174" d="M112 278q0 -137 85 -219t226 -82q231 0 334 153q25 -69 83.5 -103.5t172.5 -34.5h92l11 198q-73 0 -93 22t-20 96v425q0 176 -100.5 270t-330.5 94q-214 0 -321 -90.5t-107 -251.5v-32h255v42q0 69 36 105.5t131 36.5q92 0 130.5 -26.5t38.5 -90.5q0 -57 -18.5 -78.5 t-66.5 -38.5l-198 -71q-185 -66 -262.5 -142.5t-77.5 -181.5zM363 1394q0 -101 61 -157t169 -56t169 56t61 157t-61 156.5t-169 55.5t-169 -55.5t-61 -156.5zM373 289q0 102 147 160l215 84v-244q-37 -57 -111.5 -92.5t-129.5 -35.5q-54 0 -87.5 30.5t-33.5 97.5zM475 1395 q0 68 31 95.5t86 27.5q119 0 119 -125q0 -67 -31 -94.5t-87 -27.5t-87 28t-31 96z" />
<glyph unicode="&#xe6;" horiz-adv-x="1734" d="M112 293q0 -147 81.5 -231.5t226.5 -84.5q144 0 240.5 37t186.5 116q82 -153 339 -153q92 0 156.5 9t119.5 33.5t88 66.5t51.5 108t20.5 159h-252q-1 -63 -11.5 -100.5t-35 -56.5t-53.5 -24.5t-80 -5.5q-89 0 -133.5 35t-44.5 120v193h612v231q0 171 -101.5 261.5 t-335.5 90.5q-203 0 -309 -130q-34 64 -116.5 97t-188.5 33q-214 0 -321.5 -95t-107.5 -257v-26h256v36q0 71 36 112t131 41q172 0 172 -138q0 -26 -4.5 -45.5t-11 -34t-22 -26t-29 -18.5t-41 -15t-49 -13t-62.5 -14.5t-72 -17.5q-107 -27 -174.5 -56.5t-102.5 -67 t-47 -75.5t-12 -94zM373 294q0 119 154 153q173 40 212 73v-261q-34 -52 -99 -77t-125 -25q-68 0 -105 36t-37 101zM1012 655v105q0 81 46.5 114t134.5 33q90 0 134 -29.5t44 -112.5v-110h-359z" />
<glyph unicode="&#xe7;" horiz-adv-x="1158" d="M140 327q0 -60 11 -108.5t41.5 -95t79.5 -77.5t129.5 -50t187.5 -19q131 0 213.5 19.5t132.5 69t70 123t22 191.5h-254q0 -57 -5 -92.5t-15.5 -60.5t-32.5 -37t-50.5 -17t-74.5 -5q-96 0 -139.5 35t-43.5 119v434q0 80 46 115.5t137 35.5q75 0 110.5 -17t50.5 -64 t16 -147l256 20q0 114 -27.5 192t-85.5 123t-137 64t-193 19q-211 0 -328 -89.5t-117 -250.5v-430zM516 -358v-117q45 -9 95 -9q117 0 181 53.5t64 129.5q0 77 -44.5 134.5t-146.5 75.5l-6 101h-106v-172q69 -2 107 -37t38 -80q0 -39 -30 -62.5t-87 -23.5q-31 0 -65 7z" />
<glyph unicode="&#xe8;" horiz-adv-x="1181" d="M140 336q0 -100 34.5 -172t99 -111.5t144.5 -57.5t184 -18q90 0 154.5 8t122.5 30.5t93.5 61.5t57.5 102t24 151h-252q-1 -34 -6.5 -60t-12 -43.5t-21.5 -29t-27 -18t-36 -9.5t-41.5 -3.5t-50.5 -0.5q-107 0 -151 27.5t-44 116.5v175h643v260q0 352 -457 352 q-212 0 -335 -90t-123 -252v-419zM297 1583l233 -365h149l-114 365h-268zM412 651v121q0 79 50 107t143 28q37 0 62.5 -2t52 -9.5t42.5 -21t26 -38t10 -59.5v-126h-386z" />
<glyph unicode="&#xe9;" horiz-adv-x="1181" d="M140 336q0 -100 34.5 -172t99 -111.5t144.5 -57.5t184 -18q90 0 154.5 8t122.5 30.5t93.5 61.5t57.5 102t24 151h-252q-1 -34 -6.5 -60t-12 -43.5t-21.5 -29t-27 -18t-36 -9.5t-41.5 -3.5t-50.5 -0.5q-107 0 -151 27.5t-44 116.5v175h643v260q0 352 -457 352 q-212 0 -335 -90t-123 -252v-419zM412 651v121q0 79 50 107t143 28q37 0 62.5 -2t52 -9.5t42.5 -21t26 -38t10 -59.5v-126h-386zM557 1218h149l233 365h-268z" />
<glyph unicode="&#xea;" horiz-adv-x="1181" d="M140 336q0 -100 34.5 -172t99 -111.5t144.5 -57.5t184 -18q90 0 154.5 8t122.5 30.5t93.5 61.5t57.5 102t24 151h-252q-1 -34 -6.5 -60t-12 -43.5t-21.5 -29t-27 -18t-36 -9.5t-41.5 -3.5t-50.5 -0.5q-107 0 -151 27.5t-44 116.5v175h643v260q0 352 -457 352 q-212 0 -335 -90t-123 -252v-419zM282 1216h230l106 143l98 -143h225l-210 298h-225zM412 651v121q0 79 50 107t143 28q37 0 62.5 -2t52 -9.5t42.5 -21t26 -38t10 -59.5v-126h-386z" />
<glyph unicode="&#xeb;" horiz-adv-x="1181" d="M140 336q0 -100 34.5 -172t99 -111.5t144.5 -57.5t184 -18q90 0 154.5 8t122.5 30.5t93.5 61.5t57.5 102t24 151h-252q-1 -34 -6.5 -60t-12 -43.5t-21.5 -29t-27 -18t-36 -9.5t-41.5 -3.5t-50.5 -0.5q-107 0 -151 27.5t-44 116.5v175h643v260q0 352 -457 352 q-212 0 -335 -90t-123 -252v-419zM238 1244h264v233h-264v-233zM412 651v121q0 79 50 107t143 28q37 0 62.5 -2t52 -9.5t42.5 -21t26 -38t10 -59.5v-126h-386zM747 1244h265v233h-265v-233z" />
<glyph unicode="&#xec;" horiz-adv-x="570" d="M-18 1583l233 -365h149l-114 365h-268zM170 0h251v1074h-251v-1074z" />
<glyph unicode="&#xed;" horiz-adv-x="570" d="M170 0h251v1074h-251v-1074zM242 1218h149l233 365h-268z" />
<glyph unicode="&#xee;" horiz-adv-x="570" d="M-33 1216h230l106 143l98 -143h225l-210 298h-225zM170 0h251v1074h-251v-1074z" />
<glyph unicode="&#xef;" horiz-adv-x="570" d="M-77 1244h264v233h-264v-233zM170 0h251v1074h-251v-1074zM432 1244h265v233h-265v-233z" />
<glyph unicode="&#xf0;" horiz-adv-x="1312" d="M166 342q0 -173 127 -269t384 -96q139 0 239.5 37.5t156.5 105.5t81.5 152t25.5 188v76q0 174 -28 318t-74.5 242.5t-112 172t-134 115t-147.5 64.5l74 150l-120 57l-85 -170q-93 20 -206 20q-51 0 -90 -3l-24 -167q154 -2 238 -17l-77 -151l119 -57l89 174 q98 -28 172 -119.5t90 -243.5q-20 17 -106 35.5t-137 18.5q-202 0 -328.5 -95t-126.5 -262v-276zM444 333v279q0 181 233 181q46 0 112.5 -17.5t97.5 -39.5q23 -126 23 -308q0 -57 -4 -92t-17 -68.5t-38 -51t-68 -28t-106 -10.5q-126 0 -179.5 35.5t-53.5 119.5z" />
<glyph unicode="&#xf1;" horiz-adv-x="1272" d="M168 0h272v735q0 74 64 116.5t145 42.5q35 0 66 -6t60 -20.5t46 -43.5t17 -69v-755h272v770q0 148 -87.5 238.5t-249.5 90.5q-194 0 -333 -120v95h-272v-1074zM362 1491q0 -260 200 -260q52 0 95 16t66 35.5t46 35.5t40 16q56 0 56 -87h118q0 260 -200 260q-52 0 -95 -16 t-64.5 -35t-43 -35t-37.5 -16q-63 0 -63 86h-118z" />
<glyph unicode="&#xf2;" horiz-adv-x="1212" d="M140 325q0 -168 110.5 -258t355.5 -90q128 0 219.5 24t145 70.5t77.5 108.5t24 145v423q0 164 -123 256.5t-343 92.5q-221 0 -343.5 -92t-122.5 -257v-423zM287 1583l233 -365h149l-114 365h-268zM412 313v447q0 147 194 147q96 0 145 -34t49 -113v-447q0 -147 -194 -147 q-97 0 -145.5 34t-48.5 113z" />
<glyph unicode="&#xf3;" horiz-adv-x="1212" d="M140 325q0 -168 110.5 -258t355.5 -90q128 0 219.5 24t145 70.5t77.5 108.5t24 145v423q0 164 -123 256.5t-343 92.5q-221 0 -343.5 -92t-122.5 -257v-423zM412 313v447q0 147 194 147q96 0 145 -34t49 -113v-447q0 -147 -194 -147q-97 0 -145.5 34t-48.5 113zM547 1218 h149l233 365h-268z" />
<glyph unicode="&#xf4;" horiz-adv-x="1212" d="M140 325q0 -168 110.5 -258t355.5 -90q128 0 219.5 24t145 70.5t77.5 108.5t24 145v423q0 164 -123 256.5t-343 92.5q-221 0 -343.5 -92t-122.5 -257v-423zM272 1216h230l106 143l98 -143h225l-210 298h-225zM412 313v447q0 147 194 147q96 0 145 -34t49 -113v-447 q0 -147 -194 -147q-97 0 -145.5 34t-48.5 113z" />
<glyph unicode="&#xf5;" horiz-adv-x="1212" d="M140 325q0 -168 110.5 -258t355.5 -90q128 0 219.5 24t145 70.5t77.5 108.5t24 145v423q0 164 -123 256.5t-343 92.5q-221 0 -343.5 -92t-122.5 -257v-423zM291 1491q0 -260 200 -260q52 0 95 16t66 35.5t46 35.5t40 16q56 0 56 -87h118q0 260 -200 260q-52 0 -95 -16 t-64.5 -35t-43 -35t-37.5 -16q-63 0 -63 86h-118zM412 313v447q0 147 194 147q96 0 145 -34t49 -113v-447q0 -147 -194 -147q-97 0 -145.5 34t-48.5 113z" />
<glyph unicode="&#xf6;" horiz-adv-x="1212" d="M140 325q0 -168 110.5 -258t355.5 -90q128 0 219.5 24t145 70.5t77.5 108.5t24 145v423q0 164 -123 256.5t-343 92.5q-221 0 -343.5 -92t-122.5 -257v-423zM228 1244h264v233h-264v-233zM412 313v447q0 147 194 147q96 0 145 -34t49 -113v-447q0 -147 -194 -147 q-97 0 -145.5 34t-48.5 113zM737 1244h265v233h-265v-233z" />
<glyph unicode="&#xf7;" horiz-adv-x="1004" d="M112 479h780v163h-780v-163zM389 94h228v229h-228v-229zM389 792h228v229h-228v-229z" />
<glyph unicode="&#xf8;" horiz-adv-x="1180" d="M140 325q0 -168 110.5 -258t355.5 -90q128 0 219.5 24t145 70.5t77.5 108.5t24 145v423q0 164 -123 256.5t-343 92.5q-221 0 -343.5 -92t-122.5 -257v-423zM295 -194l72 -20l529 1474l-72 21zM412 313v447q0 147 194 147q96 0 145 -34t49 -113v-447q0 -147 -194 -147 q-97 0 -145.5 34t-48.5 113z" />
<glyph unicode="&#xf9;" horiz-adv-x="1269" d="M162 291q0 -142 96.5 -228.5t260.5 -86.5q107 0 197.5 40t120.5 102l8 -118h256v1074h-272v-724q0 -83 -64 -125.5t-149 -42.5q-73 0 -127.5 38t-54.5 115v739h-272v-783zM322 1583l233 -365h149l-114 365h-268z" />
<glyph unicode="&#xfa;" horiz-adv-x="1269" d="M162 291q0 -142 96.5 -228.5t260.5 -86.5q107 0 197.5 40t120.5 102l8 -118h256v1074h-272v-724q0 -83 -64 -125.5t-149 -42.5q-73 0 -127.5 38t-54.5 115v739h-272v-783zM582 1218h149l233 365h-268z" />
<glyph unicode="&#xfb;" horiz-adv-x="1269" d="M162 291q0 -142 96.5 -228.5t260.5 -86.5q107 0 197.5 40t120.5 102l8 -118h256v1074h-272v-724q0 -83 -64 -125.5t-149 -42.5q-73 0 -127.5 38t-54.5 115v739h-272v-783zM307 1216h230l106 143l98 -143h225l-210 298h-225z" />
<glyph unicode="&#xfc;" horiz-adv-x="1269" d="M162 291q0 -142 96.5 -228.5t260.5 -86.5q107 0 197.5 40t120.5 102l8 -118h256v1074h-272v-724q0 -83 -64 -125.5t-149 -42.5q-73 0 -127.5 38t-54.5 115v739h-272v-783zM263 1244h264v233h-264v-233zM772 1244h265v233h-265v-233z" />
<glyph unicode="&#xfd;" horiz-adv-x="1120" d="M50 1074l404 -1038q-16 -61 -30 -102t-33 -74t-39 -52t-51 -33.5t-65.5 -21.5t-86.5 -13l20 -205q90 8 150 20t115.5 41t92 66.5t77 108t74.5 154t80 215.5l326 934h-270l-223 -721l-279 721h-262zM518 1218h149l233 365h-268z" />
<glyph unicode="&#xfe;" horiz-adv-x="1212" d="M158 -410h273v427q94 -41 205 -41q215 0 329.5 101t114.5 249v425q0 157 -109.5 250.5t-302.5 93.5q-131 0 -237 -59v480h-273v-1926zM431 213v628q27 26 79 45.5t113 19.5q184 0 184 -151v-435q0 -155 -193 -155q-93 0 -183 48z" />
<glyph unicode="&#xff;" horiz-adv-x="1120" d="M50 1074l404 -1038q-16 -61 -30 -102t-33 -74t-39 -52t-51 -33.5t-65.5 -21.5t-86.5 -13l20 -205q90 8 150 20t115.5 41t92 66.5t77 108t74.5 154t80 215.5l326 934h-270l-223 -721l-279 721h-262zM199 1244h264v233h-264v-233zM708 1244h265v233h-265v-233z" />
<glyph unicode="&#x152;" horiz-adv-x="1633" d="M160 506q0 -94 14.5 -166.5t52 -138.5t99.5 -108.5t160.5 -67.5t230.5 -25h790v190h-351v475h266v193h-266v429h349v189h-788q-132 0 -231.5 -27t-160.5 -72t-99 -113t-52 -141t-14 -165v-452zM430 444v578q0 257 283 257h173v-1088h-172q-284 0 -284 253z" />
<glyph unicode="&#x153;" horiz-adv-x="1780" d="M124 326q0 -169 108.5 -259t351.5 -90q205 0 321 113q126 -113 317 -113q92 0 158 9.5t122.5 34.5t91 67.5t54.5 109t22 159.5h-254q-1 -62 -13 -101t-38 -58t-56.5 -25.5t-81.5 -6.5q-91 0 -138 35.5t-47 119.5v191h628v233q0 352 -450 352q-206 0 -317 -120 q-113 120 -319 120q-211 0 -335.5 -92t-124.5 -256v-423zM397 314v448q0 77 48 111t139 34q95 0 140 -33.5t45 -111.5v-448q0 -148 -185 -148q-95 0 -141 34t-46 114zM1042 655v105q0 81 48 114t137 33q92 0 139 -29.5t47 -112.5v-110h-371z" />
<glyph unicode="&#x178;" horiz-adv-x="1340" d="M18 1476l509 -909v-567h296v567l499 909h-300l-345 -617l-346 617h-313zM314 1646h264v233h-264v-233zM823 1646h265v233h-265v-233z" />
<glyph unicode="&#x2c6;" horiz-adv-x="512" d="M-69 1216h230l106 143l98 -143h225l-210 298h-225z" />
<glyph unicode="&#x2dc;" horiz-adv-x="759" d="M69 1491q0 -260 200 -260q52 0 95 16t66 35.5t46 35.5t40 16q56 0 56 -87h118q0 260 -200 260q-52 0 -95 -16t-64.5 -35t-43 -35t-37.5 -16q-63 0 -63 86h-118z" />
<glyph unicode="&#x2000;" horiz-adv-x="1004" />
<glyph unicode="&#x2001;" horiz-adv-x="2008" />
<glyph unicode="&#x2002;" horiz-adv-x="1004" />
<glyph unicode="&#x2003;" horiz-adv-x="2008" />
<glyph unicode="&#x2004;" horiz-adv-x="669" />
<glyph unicode="&#x2005;" horiz-adv-x="502" />
<glyph unicode="&#x2006;" horiz-adv-x="334" />
<glyph unicode="&#x2007;" horiz-adv-x="334" />
<glyph unicode="&#x2008;" horiz-adv-x="251" />
<glyph unicode="&#x2009;" horiz-adv-x="401" />
<glyph unicode="&#x200a;" horiz-adv-x="111" />
<glyph unicode="&#x2010;" horiz-adv-x="968" d="M132 494h704v148h-704v-148z" />
<glyph unicode="&#x2011;" horiz-adv-x="968" d="M132 494h704v148h-704v-148z" />
<glyph unicode="&#x2012;" horiz-adv-x="968" d="M132 494h704v148h-704v-148z" />
<glyph unicode="&#x2013;" horiz-adv-x="716" d="M128 446h460v166h-460v-166z" />
<glyph unicode="&#x2014;" horiz-adv-x="961" d="M3 383h954v173h-954v-173z" />
<glyph unicode="&#x2018;" horiz-adv-x="874" d="M296 838h322v276h-165q0 92 47.5 188.5t98.5 154.5l-107 46q-64 -58 -130 -183.5t-66 -258.5v-223z" />
<glyph unicode="&#x2019;" horiz-adv-x="834" d="M256 1228h165q0 -92 -47.5 -188.5t-98.5 -154.5l107 -46q64 58 130 183.5t66 258.5v223h-322v-276z" />
<glyph unicode="&#x201a;" horiz-adv-x="874" d="M296 0h165q0 -92 -47.5 -188.5t-98.5 -154.5l107 -46q64 58 130 183.5t66 258.5v223h-322v-276z" />
<glyph unicode="&#x201c;" horiz-adv-x="1310" d="M256 850h322v276h-165q0 92 47.5 188.5t98.5 154.5l-107 46q-64 -58 -130 -183.5t-66 -258.5v-223zM732 850h322v276h-165q0 92 47.5 188.5t98.5 154.5l-107 46q-64 -58 -130 -183.5t-66 -258.5v-223z" />
<glyph unicode="&#x201d;" horiz-adv-x="1350" d="M296 1240h165q0 -92 -47.5 -188.5t-98.5 -154.5l107 -46q64 58 130 183.5t66 258.5v223h-322v-276zM772 1240h165q0 -92 -47.5 -188.5t-98.5 -154.5l107 -46q64 58 130 183.5t66 258.5v223h-322v-276z" />
<glyph unicode="&#x201e;" horiz-adv-x="1373" d="M296 0h165q0 -92 -47.5 -188.5t-98.5 -154.5l107 -46q64 58 130 183.5t66 258.5v223h-322v-276zM795 0h165q0 -92 -47.5 -188.5t-98.5 -154.5l107 -46q64 58 130 183.5t66 258.5v223h-322v-276z" />
<glyph unicode="&#x2022;" d="M192 707q0 -139 88 -228t231 -89t232 89t89 228t-88.5 228.5t-231.5 89.5t-231.5 -89.5t-88.5 -228.5z" />
<glyph unicode="&#x2026;" horiz-adv-x="1800" d="M105 0h298v284h-298v-284zM706 0h298v284h-298v-284zM1304 0h298v284h-298v-284z" />
<glyph unicode="&#x202f;" horiz-adv-x="401" />
<glyph unicode="&#x2039;" horiz-adv-x="768" d="M174 530l280 -450l140 70l-207 380l207 380l-147 70z" />
<glyph unicode="&#x203a;" horiz-adv-x="768" d="M180 150l147 -70l273 450l-280 450l-140 -70l207 -380z" />
<glyph unicode="&#x205f;" horiz-adv-x="502" />
<glyph unicode="&#x20ac;" horiz-adv-x="1490" d="M46 536h742v134h-742v-134zM46 838h742v134h-742v-134zM168 484q0 -95 13.5 -166t53.5 -138.5t107.5 -110.5t179.5 -69t266 -26q108 0 193.5 13t146 36t104.5 59.5t70.5 76.5t41.5 94.5t20.5 106.5t5.5 120v27h-291v-47q0 -80 -13 -128t-48.5 -77t-87.5 -38.5t-141 -9.5 q-88 0 -145 10.5t-99.5 37.5t-61 75.5t-18.5 123.5v558q0 147 75.5 201.5t247.5 54.5q170 0 230.5 -54t60.5 -208v-75l291 34v18q0 81 -8.5 142.5t-30.5 123.5t-63.5 105.5t-104.5 78t-157.5 51.5t-217.5 17q-129 0 -229 -17.5t-167 -52.5t-112 -79.5t-69 -107t-33.5 -125 t-9.5 -142.5v-493z" />
<glyph unicode="&#x2122;" horiz-adv-x="1843" d="M133 1302h182v-536h195v536h182v144h-559v-144zM825 766h165v473l159 -308h161l152 308v-473h167v680h-216l-186 -343l-184 343h-218v-680z" />
<glyph unicode="&#x25fc;" horiz-adv-x="1075" d="M0 0v1075h1075v-1075h-1075z" />
<glyph unicode="&#xfb03;" horiz-adv-x="2126" d="M86 901h143v-901h272v901h214v173h-214v112q0 64 29 102.5t110 38.5h84l-7 189h-126q-188 0 -275 -98t-87 -293v-51h-143v-173zM864 901h143v-901h272v901h214v173h-214v112q0 64 29 102.5t110 38.5h84l-7 189h-126q-188 0 -275 -98t-87 -293v-51h-143v-173zM1719 1251 h268v254h-268v-254zM1726 0h251v1074h-251v-1074z" />
<glyph unicode="&#xfb04;" horiz-adv-x="2290" d="M86 901h143v-901h272v901h214v173h-214v112q0 64 29 102.5t110 38.5h84l-7 189h-126q-188 0 -275 -98t-87 -293v-51h-143v-173zM864 901h143v-901h272v901h214v173h-214v112q0 64 29 102.5t110 38.5h84l-7 189h-126q-188 0 -275 -98t-87 -293v-51h-143v-173zM1726 353 q0 -197 89 -281t274 -84h114l21 202h-34q-108 0 -150 38.5t-42 128.5v1158h-272v-1162z" />
</font>
</defs>
</svg>
