<?xml version="1.0" standalone="no"?>
<!DOCTYPE svg PUBLIC "-//W3C//DTD SVG 1.1//EN" "http://www.w3.org/Graphics/SVG/1.1/DTD/svg11.dtd" >
<svg xmlns="http://www.w3.org/2000/svg">
<metadata></metadata>
<defs>
<font id="mondalight" horiz-adv-x="1148" >
<font-face units-per-em="2048" ascent="1638" descent="-410" />
<missing-glyph horiz-adv-x="548" />
<glyph unicode="&#xfb01;" horiz-adv-x="1332" d="M112 940h197v-940h138v940h282v112h-282v219q0 128 161 128h135l-15 99h-115q-152 0 -228 -50.5t-76 -168.5v-227h-197v-112zM989 0h150v1052h-150v-1052zM993 1243h138v180h-138v-180z" />
<glyph unicode="&#xfb02;" horiz-adv-x="1451" d="M112 940h197v-940h138v940h282v112h-282v219q0 128 161 128h135l-15 99h-115q-152 0 -228 -50.5t-76 -168.5v-227h-197v-112zM986 361q0 -71 6.5 -125t18 -93t32.5 -66t44.5 -43.5t60.5 -25t73.5 -11.5t90.5 -3h18l23 132h-33q-44 0 -71.5 2.5t-51.5 11.5t-36.5 23 t-21.5 41t-12 62t-3 89v1144h-138v-1138z" />
<glyph horiz-adv-x="0" />
<glyph unicode="&#xd;" horiz-adv-x="600" />
<glyph horiz-adv-x="600" />
<glyph unicode="&#x9;" horiz-adv-x="600" />
<glyph unicode="&#xa;" horiz-adv-x="600" />
<glyph unicode=" "  horiz-adv-x="548" />
<glyph unicode="&#x09;" horiz-adv-x="548" />
<glyph unicode="&#xa0;" horiz-adv-x="548" />
<glyph unicode="!" horiz-adv-x="576" d="M200 0h176v183h-176v-183zM206 1427q0 -243 14.5 -512.5t29.5 -418.5l14 -148h44q7 60 18 163.5t29.5 388t18.5 527.5h-168z" />
<glyph unicode="&#x22;" horiz-adv-x="810" d="M163 1500l23 -535h108l45 535h-176zM471 1500l36 -535h108l32 535h-176z" />
<glyph unicode="#" horiz-adv-x="1231" d="M75 473h200l-88 -473h121l85 473h330l-88 -473h121l85 473h291v107h-272l61 338h235v107h-217l73 402h-113l-74 -402h-333l72 402h-113l-74 -402h-278v-107h257l-61 -338h-220v-107zM412 580l61 338h332l-62 -338h-331z" />
<glyph unicode="$" horiz-adv-x="1316" d="M158 116q117 -69 231.5 -102.5t302.5 -33.5q248 0 359 102t111 314q0 113 -27.5 180.5t-81.5 106t-158 74.5l-413 143q-93 33 -120.5 69.5t-27.5 133.5q0 61 14 100.5t52 69.5t106.5 43t174.5 13q170 0 264.5 -21t166.5 -58l36 109q-157 89 -467 89q-115 0 -199.5 -16 t-152 -53.5t-102 -106.5t-34.5 -169q0 -67 12 -116.5t30.5 -81.5t55.5 -58t72.5 -41.5t96.5 -36.5l407 -141q100 -35 129.5 -80.5t29.5 -141.5q0 -169 -73 -237.5t-261 -68.5q-161 0 -275 31.5t-206 93.5zM623 -408h110v2166h-110v-2166z" />
<glyph unicode="%" horiz-adv-x="2008" d="M158 1065q0 -90 14 -156.5t47 -118t92 -78t143 -26.5q164 0 232.5 97.5t68.5 281.5v54q-1 91 -16 156.5t-49 115t-92.5 74t-143.5 24.5q-165 0 -230.5 -92.5t-65.5 -278.5v-53zM290 1047v98q0 48 2.5 79t12 64t27 51.5t48 30.5t74.5 12t75 -12t48.5 -30.5t27.5 -51.5 t12.5 -65t2.5 -80v-96q0 -48 -3.5 -82.5t-13.5 -68.5t-28 -55t-48.5 -34t-72.5 -13t-72 13t-48 34t-28 55t-13 68.5t-3 82.5zM652 0h140l538 1446h-135zM1254 360q0 -90 14 -156.5t47 -118t92 -78t143 -26.5q164 0 232.5 97.5t68.5 281.5v54q-1 91 -16 156.5t-49 115 t-92.5 74t-143.5 24.5q-165 0 -230.5 -92.5t-65.5 -278.5v-53zM1387 341v99q0 60 4.5 96.5t20.5 72t50 51.5t88 16q44 0 75 -12t49 -30.5t27.5 -51.5t12.5 -64.5t3 -79.5v-97q0 -47 -3.5 -82t-14 -68.5t-28 -54.5t-48.5 -34t-73 -13t-72 13t-47.5 33.5t-27.5 55t-13 68.5 t-3 82z" />
<glyph unicode="&#x26;" horiz-adv-x="1432" d="M172 426q0 -59 11 -114t44.5 -117.5t87.5 -108t149.5 -76t220.5 -30.5q209 0 316.5 39.5t153.5 111.5l160 -148l71 77l-179 172q15 69 15 191v48v281h-116v-337q0 -69 -1 -83l-594 559q-75 71 -100 117t-25 124q0 101 67 158t208 57q148 0 199.5 -36t51.5 -140v-71h123 v92q0 69 -17.5 119t-47.5 80.5t-79 48t-102.5 23.5t-127.5 6q-212 0 -313 -93.5t-101 -247.5q0 -56 11 -99t39 -82.5t51.5 -64.5t73.5 -71q-139 -41 -194.5 -133.5t-55.5 -251.5zM312 432q0 245 192 302l564 -524q-42 -72 -120.5 -91.5t-262.5 -19.5q-373 0 -373 333z" />
<glyph unicode="'" horiz-adv-x="972" d="M132 1500l23 -535h107l46 535h-176z" />
<glyph unicode="(" horiz-adv-x="661" d="M145 250q0 -70 7.5 -121.5t32.5 -106t69 -88.5t121.5 -56.5t185.5 -22.5v111q-72 0 -122.5 14.5t-80 38t-45.5 63t-21 78.5t-5 95q0 25 1.5 80t1.5 85v562q0 30 -1.5 86.5t-1.5 82.5q0 58 5 97.5t21 80.5t45.5 65.5t80 40t122.5 15.5v112q-78 0 -140 -12t-105 -32 t-74.5 -51t-50 -64.5t-29 -78t-14 -84.5t-3.5 -91q0 -35 2.5 -104t2.5 -102v-491q0 -33 -2.5 -100.5t-2.5 -101.5z" />
<glyph unicode=")" horiz-adv-x="661" d="M90 -33v-112q108 0 185.5 23.5t121.5 59.5t69 93.5t32.5 111t7.5 126.5q0 35 -2.5 104t-2.5 102v491q0 33 2.5 100.5t2.5 101.5q0 49 -3.5 87.5t-14 81t-29 74t-50 61.5t-74.5 48.5t-105 30t-140 11.5v-110q72 0 122.5 -14.5t80 -38t45.5 -63t21 -78.5t5 -95 q0 -25 -1.5 -80t-1.5 -85v-561q0 -30 1.5 -87.5t1.5 -83.5q0 -58 -5 -98t-21 -81t-45.5 -65t-80 -39.5t-122.5 -15.5z" />
<glyph unicode="*" horiz-adv-x="1040" d="M107 911l80 -161l273 174l-29 -325h178l-29 313l247 -190l95 153l-280 142l291 117l-81 161l-273 -174l30 325h-178l28 -313l-247 190l-95 -153l280 -142z" />
<glyph unicode="+" horiz-adv-x="1059" d="M180 511h289v-355h123v355h287v107h-287v350h-123v-350h-289v-107z" />
<glyph unicode="," horiz-adv-x="565" d="M168 -265l66 -42q157 148 157 355v159h-218v-207h127q0 -31 -7.5 -61.5t-16 -51t-26.5 -48.5t-26.5 -39t-31 -36.5t-24.5 -28.5z" />
<glyph unicode="-" horiz-adv-x="1058" d="M197 521h614v101h-614v-101z" />
<glyph unicode="." horiz-adv-x="624" d="M199 0h231v217h-231v-217z" />
<glyph unicode="/" horiz-adv-x="614" d="M39 0h153l384 1500h-147z" />
<glyph unicode="0" d="M106 715q0 -283 43.5 -440t142.5 -226t277 -69q180 0 280.5 66.5t145.5 218t47 423.5q0 220 -23 362t-79.5 233t-145 128t-225.5 37q-105 0 -180 -23.5t-130 -74.5t-87.5 -138t-48.5 -207.5t-17 -289.5zM249 690v32q0 234 30 363.5t98.5 186.5t191.5 57q124 0 193 -57 t99 -186.5t30 -363.5v-32q0 -227 -30 -353t-99 -181.5t-193 -55.5q-123 0 -191.5 55.5t-98.5 181.5t-30 353z" />
<glyph unicode="1" d="M177 0h879v123h-340v1305h-140l-352 -37l13 -124l335 32v-1176h-395v-123z" />
<glyph unicode="2" d="M119 1043h137q0 164 72 222t254 58q168 0 236 -62t68 -205q0 -35 -3.5 -63.5t-15.5 -58t-20.5 -47.5t-35 -50.5t-40 -48.5t-54.5 -60.5t-62 -67.5l-482 -536l8 -124h837v116h-681l442 487q17 19 52.5 56t52 56t44 52.5t40.5 60t28 63.5t21 78t6 89q0 69 -11.5 124.5 t-42 107t-79 86t-127 55t-181.5 20.5q-239 0 -351 -93.5t-112 -314.5z" />
<glyph unicode="3" d="M151 428q7 -95 20.5 -161.5t38 -118t57.5 -82.5t85 -51t114.5 -27.5t151.5 -7.5q401 0 401 401q0 103 -16.5 173t-53 111.5t-82.5 62.5t-116 33q132 17 180.5 92t48.5 232q0 106 -29 180.5t-83 113.5t-118 55.5t-147 16.5q-42 0 -72 -1t-67.5 -4.5t-64 -10.5t-57 -18 t-52 -28t-43.5 -40t-36 -55t-26 -71.5t-17 -90.5t-5 -112h140q0 75 7 127t26.5 85.5t37 52t58.5 27t70.5 10t91.5 1.5h8q75 0 123.5 -15t73 -48t33.5 -72t9 -99v-41q0 -39 -1.5 -62t-8.5 -50.5t-20.5 -43t-37.5 -32t-60.5 -24.5t-88 -13t-120.5 -5v-119q87 0 144.5 -5 t101 -21t67.5 -36.5t38.5 -60.5t18.5 -84.5t4 -116.5q0 -137 -58.5 -204t-201.5 -67q-48 0 -78 1.5t-65 6t-55.5 14t-43 25.5t-35.5 39.5t-24.5 57.5t-17.5 78t-8 102h-140z" />
<glyph unicode="4" d="M101 384h622v-384h125v384h208v109h-208v329h-125v-329h-469l485 935h-141l-497 -934v-110z" />
<glyph unicode="5" d="M142 96q71 -37 118 -58t125 -39.5t161 -18.5q220 0 337 121.5t117 332.5q0 118 -32.5 207t-90 140.5t-127.5 76.5t-153 25q-163 0 -272 -93l43 522h551v116h-674l-33 -735l105 -32q116 99 280 99q57 0 104.5 -19t87 -58t61.5 -106.5t22 -157.5q0 -146 -84.5 -231 t-241.5 -85q-185 0 -368 118z" />
<glyph unicode="6" d="M145 404q0 -218 106.5 -321t332.5 -103q233 0 343 103t110 321q0 214 -111.5 316t-335.5 102q-111 0 -172.5 -29t-101.5 -78l44 6l423 707h-161l-332 -572q-145 -250 -145 -452zM278 404q0 157 75 230.5t237 73.5q159 0 235.5 -74.5t76.5 -229.5q0 -160 -71.5 -232 t-246.5 -72q-169 0 -237.5 72t-68.5 232z" />
<glyph unicode="7" d="M168 1319h684l-474 -1319h149l452 1300v128h-811v-109z" />
<glyph unicode="8" d="M113 364q0 -200 117.5 -292t342.5 -92q227 0 344.5 92.5t117.5 290.5q0 67 -20.5 126.5t-49 99.5t-72.5 77.5t-76 57.5t-74 43q16 10 59.5 34t64 37t54 41t50 55t29.5 69t13 93q0 87 -29 153t-72.5 103.5t-104.5 60.5t-115.5 30.5t-115.5 7.5q-63 0 -117.5 -7.5t-115 -31 t-103.5 -61.5t-71 -104.5t-28 -154.5q0 -37 7 -69.5t18 -56.5t30 -47t35.5 -38t43 -33t45 -28t49 -26.5t46.5 -26.5q-57 -25 -105.5 -58.5t-95.5 -81.5t-74 -116t-27 -147zM255 361q0 53 20 101t48 81.5t76 69t84 56.5t92 50q57 -30 91.5 -50t83.5 -56t77 -69.5t48.5 -81.5 t20.5 -101q0 -64 -17 -111.5t-44.5 -75.5t-70.5 -45t-88 -23t-103 -6t-102 6t-86.5 23t-69.5 45t-43.5 75.5t-16.5 111.5zM285 1100q0 223 291 223q290 0 290 -223q0 -42 -18.5 -80t-43 -65t-69 -56t-76.5 -45.5t-84 -41.5q-42 20 -68.5 34t-64.5 36.5t-62.5 44t-48 49 t-35 58.5t-11.5 66z" />
<glyph unicode="9" d="M133 1024q0 -214 111.5 -316t335.5 -102q111 0 172.5 29t101.5 78l-44 -6l-423 -707h161l332 572q145 250 145 452q0 218 -106.5 321t-332.5 103q-233 0 -343 -103t-110 -321zM268 1024q0 160 71.5 232t246.5 72q169 0 237.5 -72t68.5 -232q0 -157 -75 -230.5t-237 -73.5 q-159 0 -235.5 74.5t-76.5 229.5z" />
<glyph unicode=":" horiz-adv-x="767" d="M307 40h231v217h-231v-217zM307 796h231v217h-231v-217z" />
<glyph unicode=";" horiz-adv-x="767" d="M275 -48l66 -42q157 148 157 355v159h-218v-207h127q0 -31 -7.5 -61.5t-16 -51t-26.5 -48.5t-26.5 -39t-31 -36.5t-24.5 -28.5zM295 796h231v217h-231v-217z" />
<glyph unicode="&#x3c;" horiz-adv-x="1386" d="M182 487l972 -506v196l-832 406l832 413v186l-972 -505v-190z" />
<glyph unicode="=" horiz-adv-x="1472" d="M291 525h890v133h-890v-133zM291 844h890v133h-890v-133z" />
<glyph unicode="&#x3e;" horiz-adv-x="1386" d="M242 -19l971 507v190l-971 504v-195l831 -407l-831 -411v-188z" />
<glyph unicode="?" horiz-adv-x="1083" d="M155 1085h133v34q0 101 62.5 152t209.5 51q131 0 189.5 -47.5t58.5 -143.5q0 -41 -12 -82.5t-43.5 -95.5t-46.5 -77t-60 -88l-246 -357h118l181 220q125 152 188 263.5t63 227.5q0 60 -19 111t-61.5 96.5t-121.5 72t-188 26.5q-405 0 -405 -320v-43zM356 0h177v183h-177 v-183z" />
<glyph unicode="@" horiz-adv-x="2048" d="M435 322q0 -38 7.5 -76.5t28 -84t53 -85.5t86 -78t122.5 -65t167.5 -43.5t216.5 -16.5q151 0 295.5 30t203.5 69l-46 104q-51 -40 -182.5 -70t-285.5 -30q-242 0 -378.5 78.5t-136.5 204.5v794q0 122 127 203.5t350 81.5q87 0 155 -10t114 -26t78 -43t49.5 -53t27 -66 t12 -71t2.5 -78q-8 0 -270 -64q-150 -34 -243.5 -67.5t-145.5 -74t-70.5 -83.5t-18.5 -106q0 -58 19 -111t59 -100.5t112.5 -76t168.5 -28.5q89 0 163 19.5t122 52t77.5 62.5t49.5 63q9 -39 18 -63.5t30 -53t59.5 -42.5t94.5 -14l20 117q-44 0 -68.5 5t-36 20.5t-14 32 t-2.5 52.5v-30q1 86 1 537l2 24q3 23 3 44q0 30 -4 58t-18.5 64.5t-37.5 67t-64.5 62t-96.5 53t-137 35t-182 13.5q-130 0 -233.5 -18.5t-174 -53t-120 -78.5t-77 -101t-39.5 -114t-12 -124v-648zM924 596q0 49 21.5 80.5t85 61.5t184.5 61q56 14 109 27.5t78 19.5 t47.5 11.5t32.5 9t18 7.5v-265q-22 -68 -87 -120t-138.5 -76t-141.5 -24q-101 0 -155 52t-54 155z" />
<glyph unicode="A" horiz-adv-x="1361" d="M87 0h150l107 283h682l107 -283h141l-539 1428h-107zM380 393l306 836l306 -836h-612z" />
<glyph unicode="B" horiz-adv-x="1377" d="M222 0h524q259 0 378.5 92t123.5 297q0 132 -70 232t-182 133q87 36 130.5 108.5t46.5 163.5q0 66 -6.5 115t-23.5 97t-49.5 81t-81.5 58.5t-122.5 38t-170.5 12.5h-497v-1428zM367 114v578h449q64 0 115 -16.5t83.5 -43.5t54 -63t30.5 -73t9 -76q0 -75 -16 -129.5 t-44 -88.5t-74 -53.5t-97.5 -27t-121.5 -7.5h-388zM367 804v504h314q108 0 170.5 -10t106.5 -41.5t60 -86t16 -146.5q0 -102 -62 -161t-196 -59h-409z" />
<glyph unicode="C" horiz-adv-x="1424" d="M190 487q0 -98 13.5 -171.5t50.5 -139t98 -107t160 -65.5t233 -24q128 0 217.5 16.5t147 47.5t90 85t45 117.5t13.5 156.5v10h-131v-11q0 -53 -5 -94t-17 -72.5t-26.5 -53.5t-40.5 -37t-51 -24t-65.5 -13.5t-77.5 -6t-93 -1.5q-110 0 -183 15t-128 54t-80 109.5 t-25 177.5v500q0 108 24.5 180t76.5 114.5t125.5 60.5t180.5 18q53 0 86.5 -1t73.5 -4t63.5 -9.5t50.5 -17.5t42 -27t30.5 -39t22.5 -53.5t11.5 -69.5t4.5 -89v-10l131 7v10q0 119 -24.5 196.5t-84.5 129.5t-158 74t-249 22q-135 0 -233.5 -26t-159 -70t-97 -113.5 t-49.5 -145t-13 -175.5v-431z" />
<glyph unicode="D" horiz-adv-x="1497" d="M222 0h537q273 0 410 113.5t137 352.5v492q0 104 -29.5 187t-93 148t-171.5 100t-256 35h-534v-1428zM367 101v1224h375q70 0 123.5 -6.5t112.5 -29t97 -61.5t63 -108.5t25 -165.5v-497q0 -68 -13 -122.5t-33.5 -91.5t-54 -63.5t-67 -41.5t-79.5 -23.5t-84.5 -11 t-89.5 -2.5h-375z" />
<glyph unicode="E" horiz-adv-x="1218" d="M222 0h877v106h-733v578h635v112h-635v526h720v106h-864v-1428z" />
<glyph unicode="F" horiz-adv-x="1137" d="M222 0h143v682h601v112h-601v530h634v104h-777v-1428z" />
<glyph unicode="G" horiz-adv-x="1516" d="M197 487q0 -122 25.5 -210t88 -157.5t176.5 -104.5t281 -35q206 0 321.5 74.5t136.5 237.5l12 -292h82v722h-533v-118h370v-148q0 -109 -21 -178t-70.5 -108.5t-119 -54.5t-178.5 -15q-110 0 -184.5 15.5t-131.5 54t-84 109t-27 177.5v500q0 107 27.5 180t84 115 t132.5 60t183 18q50 0 83 -0.5t71 -3t62 -7t51 -12t43 -18t33 -26.5t26.5 -36t18.5 -47t13 -59t6 -73l1 -23l119 11l-1 30q-3 76 -16.5 131.5t-48.5 105t-92.5 80.5t-149.5 48.5t-219 17.5q-134 0 -235 -26t-164.5 -70.5t-102.5 -113t-54 -145.5t-15 -175v-431z" />
<glyph unicode="H" horiz-adv-x="1444" d="M212 0h143v685h734v-685h143v1428h-143v-646h-734v646h-143v-1428z" />
<glyph unicode="I" horiz-adv-x="1122" d="M209 0h704v107h-280v1215h280v106h-704v-106h280v-1215h-280v-107z" />
<glyph unicode="J" horiz-adv-x="1196" d="M121 72q29 -20 160.5 -52t251.5 -32q118 0 201.5 31.5t132 92.5t70.5 140.5t22 183.5v992h-723v-128h580v-869q0 -166 -67.5 -243t-213.5 -77q-77 0 -167 18.5t-136 34t-64 24.5z" />
<glyph unicode="K" horiz-adv-x="1387" d="M222 0h143v457l252 269l518 -726h156l-583 794l559 634h-152l-750 -833v833h-143v-1428z" />
<glyph unicode="L" horiz-adv-x="1116" d="M222 0h811v109h-668v1319h-143v-1428z" />
<glyph unicode="M" horiz-adv-x="1694" d="M222 0h140v1135l438 -683h99l436 687v-1139h137v1428h-85l-538 -834l-528 834h-99v-1428z" />
<glyph unicode="N" horiz-adv-x="1544" d="M222 0h123v1169l824 -1169h153v1428h-125v-1242l-864 1242h-111v-1428z" />
<glyph unicode="O" horiz-adv-x="1500" d="M197 477q0 -97 14.5 -170t52.5 -136.5t100.5 -104t161 -63.5t232.5 -23q129 0 225 24.5t157 67.5t98 109t51.5 140t14.5 169v426q0 81 -10 147t-33.5 128t-64.5 107.5t-100 80t-144.5 52t-193.5 17.5q-134 0 -233 -25t-161.5 -68t-100 -110.5t-52 -143t-14.5 -173.5v-451 zM341 447v516q0 107 26 179t81 113t128.5 57.5t181.5 16.5t180 -16t124 -57t75.5 -112.5t23.5 -180.5v-516q0 -107 -23 -175.5t-75.5 -106t-123 -51.5t-181.5 -14q-88 0 -150 8.5t-115.5 31t-85 61t-49 99.5t-17.5 147z" />
<glyph unicode="P" horiz-adv-x="1277" d="M222 0h145v541h445q52 0 98 12t92 43.5t78.5 80t53 127t20.5 179.5q0 119 -28 207t-78 139t-112 75t-137 24h-577v-1428zM367 656v654h425q33 0 61 -8t48 -19.5t35.5 -32t25.5 -38.5t17 -46.5t10.5 -48.5t5.5 -52t2 -49v-47q0 -47 -3 -84t-15.5 -82.5t-33.5 -75.5 t-60.5 -50.5t-94.5 -20.5h-423z" />
<glyph unicode="Q" horiz-adv-x="1494" d="M197 477q0 -119 23 -203.5t80.5 -152.5t163 -103.5t261.5 -38.5l248 -373l99 77l-197 301q102 9 177.5 38.5t123.5 72.5t77 106t40 132t11 157v426q0 81 -10 147t-33.5 128t-64.5 107.5t-100 80t-144.5 52t-193.5 17.5q-134 0 -233 -25t-161.5 -68t-100 -110.5t-52 -143 t-14.5 -173.5v-451zM341 447v516q0 107 26 179t81 113t128.5 57.5t181.5 16.5t180 -16t124 -57t75.5 -112.5t23.5 -180.5v-516q0 -107 -23 -175.5t-75.5 -106t-123 -51.5t-181.5 -14q-88 0 -150 8.5t-115.5 31t-85 61t-49 99.5t-17.5 147z" />
<glyph unicode="R" horiz-adv-x="1428" d="M222 0h145v609q511 1 529 1l304 -610h146l-320 642q29 13 53.5 29t52 46.5t46.5 69t31.5 98.5t12.5 133q0 90 -12.5 158t-39 112t-57.5 72.5t-77.5 43t-89.5 19.5t-101 5h-623v-1428zM367 726v584h478q71 0 117 -19.5t68.5 -61t30.5 -89.5t8 -122q0 -161 -51 -226.5 t-189 -65.5h-462z" />
<glyph unicode="S" horiz-adv-x="1318" d="M158 116q117 -69 231.5 -102.5t302.5 -33.5q248 0 359 102t111 314q0 113 -27.5 180.5t-81.5 106t-158 74.5l-413 143q-93 33 -120.5 69.5t-27.5 133.5q0 61 14 100.5t52 69.5t106.5 43t174.5 13q170 0 264.5 -21t166.5 -58l36 109q-157 89 -467 89q-115 0 -199.5 -16 t-152 -53.5t-102 -106.5t-34.5 -169q0 -67 12 -116.5t30.5 -81.5t55.5 -58t72.5 -41.5t96.5 -36.5l407 -141q100 -35 129.5 -80.5t29.5 -141.5q0 -169 -73 -237.5t-261 -68.5q-161 0 -275 31.5t-206 93.5z" />
<glyph unicode="T" horiz-adv-x="1210" d="M112 1300h420v-1300h144v1300h422v128h-986v-128z" />
<glyph unicode="U" horiz-adv-x="1497" d="M205 476q0 -85 13.5 -153.5t51 -134.5t98 -110t160 -71t231.5 -27q124 0 218.5 26.5t153.5 70.5t96 108t51 132.5t14 151.5v958h-145v-977q0 -90 -22 -155t-56 -102t-88 -58.5t-104 -28t-118 -6.5q-67 0 -119.5 6.5t-109.5 28.5t-94 58.5t-61.5 102t-24.5 154.5v977h-145 v-951z" />
<glyph unicode="V" horiz-adv-x="1327" d="M114 1428l511 -1428h67l522 1428h-146l-410 -1130l-402 1130h-142z" />
<glyph unicode="W" horiz-adv-x="2068" d="M137 1428l430 -1428h84l406 1339l376 -1339h93l405 1428h-123l-329 -1154l-339 1154h-194l-341 -1147l-342 1147h-126z" />
<glyph unicode="X" horiz-adv-x="1326" d="M128 0h153l385 608l380 -608h153l-460 725l446 703h-150l-366 -589l-374 589h-139l440 -707z" />
<glyph unicode="Y" horiz-adv-x="1305" d="M66 1428l514 -859v-569h144v569l515 859h-151l-437 -753l-432 753h-153z" />
<glyph unicode="Z" horiz-adv-x="1254" d="M215 0h855v132h-692l678 1187v109h-807v-128h643l-677 -1175v-125z" />
<glyph unicode="[" horiz-adv-x="724" d="M282 -68h316v118h-179v1325h179v116h-316v-1559z" />
<glyph unicode="\" horiz-adv-x="614" d="M39 1500l390 -1500h147l-384 1500h-153z" />
<glyph unicode="]" horiz-adv-x="724" d="M224 48v-116h316v1559h-316v-118h178v-1325h-178z" />
<glyph unicode="^" horiz-adv-x="1257" d="M198 695h169l265 495l268 -495h173l-344 588h-200z" />
<glyph unicode="_" horiz-adv-x="944" d="M18 -12v-135h911v135h-911z" />
<glyph unicode="`" horiz-adv-x="652" d="M-6 1586l237 -390h115l-152 390h-200z" />
<glyph unicode="a" horiz-adv-x="1171" d="M162 264q0 -67 14 -116.5t47 -89t94.5 -59.5t150.5 -20q62 0 116.5 14t90.5 33.5t67.5 46.5t47.5 47t29 42q26 -89 69.5 -129.5t135.5 -40.5h6l28 112q-66 0 -88 26t-22 114v468q0 172 -80.5 265t-263.5 93q-210 0 -311 -62.5t-101 -214.5v-57h136v50q0 32 3 51.5 t17.5 44t42 38t80 23.5t127.5 10q57 0 97.5 -11.5t62 -27.5t33.5 -42.5t15 -48t3 -52.5q0 -54 -6 -77t-30 -31l-235 -87q-227 -84 -301.5 -144.5t-74.5 -167.5zM293 262q0 73 55 114.5t207 99.5l254 95v-269q-13 -80 -115.5 -145t-210.5 -65q-65 0 -102.5 8t-57 31t-25 51 t-5.5 80z" />
<glyph unicode="b" horiz-adv-x="1187" d="M196 0h110l22 75q2 -1 19.5 -12t25.5 -15.5t28 -15.5t33.5 -16.5t35.5 -13.5t41.5 -12.5t43.5 -7.5t48 -3q206 0 318.5 109t112.5 278v360q0 163 -106.5 253.5t-296.5 90.5q-76 0 -159.5 -22.5t-138.5 -55.5v508h-137v-1500zM333 171v707q74 33 162 54t151 21 q115 0 183 -53.5t68 -154.5v-408q0 -104 -91.5 -170t-220.5 -66q-107 0 -252 70z" />
<glyph unicode="c" horiz-adv-x="1075" d="M153 354q0 -77 26 -143.5t76.5 -119t132 -82.5t185.5 -30q191 0 282 66.5t113 222.5h-126q-9 -58 -22 -89.5t-44.5 -52t-77.5 -26.5t-129 -6q-279 0 -279 238v403q0 117 67 167.5t212 50.5q78 0 125.5 -8.5t81.5 -33.5t48 -69.5t14 -117.5l132 15q0 79 -20 138 t-54.5 95.5t-87 59t-110 30.5t-131.5 8q-187 0 -300.5 -91t-113.5 -236v-389z" />
<glyph unicode="d" horiz-adv-x="1183" d="M153 342q0 -77 21.5 -140t68 -114.5t129.5 -80t197 -28.5q78 0 162.5 29t129.5 66l32 -74h95v1500h-138v-471q-49 17 -125 29t-131 12q-441 0 -441 -346v-382zM290 322v432q0 69 40.5 114.5t104 65t148.5 19.5q168 0 267 -48v-729q-44 -27 -120.5 -51t-160.5 -24 q-118 0 -198.5 58t-80.5 163z" />
<glyph unicode="e" horiz-adv-x="1112" d="M153 397q0 -86 9.5 -147t35.5 -115t71.5 -86.5t119 -51t176.5 -18.5q152 0 234 25.5t119 82.5t49 166h-117q-5 -45 -18 -73.5t-31 -46t-55.5 -25.5t-75 -10t-108.5 -2q-90 0 -144.5 16t-82.5 55.5t-36.5 87.5t-8.5 130v134h687v247q0 146 -103.5 225t-301.5 79 q-419 0 -419 -334v-339zM290 622v131q0 200 278 200q134 0 203 -39.5t69 -134.5v-157h-550z" />
<glyph unicode="f" horiz-adv-x="784" d="M112 940h197v-940h138v940h282v112h-282v219q0 128 161 128h135l-15 99h-115q-152 0 -228 -50.5t-76 -168.5v-227h-197v-112z" />
<glyph unicode="g" horiz-adv-x="1145" d="M153 387q0 -173 93 -257.5t299 -84.5q69 0 159.5 22t128.5 66v-165q0 -125 -65 -186t-213 -61q-79 0 -156 11.5t-102 24.5l-33 -115q96 -30 347 -30q173 0 266.5 123.5t93.5 311.5v1004h-120l-16 -80q-80 99 -284 99q-195 0 -296.5 -91t-101.5 -265v-327zM290 346v397 q0 104 73 157t199 53q144 0 207.5 -45t63.5 -143v-499q-50 -44 -94 -64q-77 -35 -175 -35q-274 0 -274 179z" />
<glyph unicode="h" horiz-adv-x="1195" d="M196 0h137v764q0 84 79.5 140.5t244.5 56.5q219 0 219 -162v-799h138v760q0 66 -14.5 117t-51.5 97t-109.5 71t-178.5 25q-233 0 -327 -126v555h-137v-1499z" />
<glyph unicode="i" horiz-adv-x="548" d="M205 0h150v1052h-150v-1052zM209 1243h138v180h-138v-180z" />
<glyph unicode="j" horiz-adv-x="548" d="M39 -239l7 -120l82 3q59 2 94.5 10t66.5 28.5t46 59.5t23 99t8 152v1059h-138v-1084q0 -93 -11 -134t-37 -55t-88 -16zM227 1243h138v180h-138v-180z" />
<glyph unicode="k" horiz-adv-x="1105" d="M196 0h137v350l163 164l426 -514h169l-505 584l447 468h-144l-556 -566v1014h-137v-1500z" />
<glyph unicode="l" horiz-adv-x="667" d="M202 361q0 -71 6.5 -125t18 -93t32.5 -66t44.5 -43.5t60.5 -25t73.5 -11.5t90.5 -3h18l23 132h-33q-44 0 -71.5 2.5t-51.5 11.5t-36.5 23t-21.5 41t-12 62t-3 89v1144h-138v-1138z" />
<glyph unicode="m" horiz-adv-x="1829" d="M197 0h137v765q0 41 13 73t44.5 61t93 44.5t150.5 15.5q108 0 164 -44.5t56 -122.5v-792h138v758v12q0 189 301 189q106 0 159.5 -44.5t53.5 -122.5v-792h137v756q0 54 -6.5 95t-28.5 84t-59 71t-102 46t-154 18q-127 0 -212.5 -33t-130.5 -110q-40 67 -112.5 105 t-203.5 38q-115 0 -186 -28t-115 -98v108h-137v-1052z" />
<glyph unicode="n" horiz-adv-x="1195" d="M197 0h138v767q0 82 81 138t242 56q118 0 168 -42t50 -122v-797h138v790q0 63 -17.5 111.5t-56.5 87.5t-110 59.5t-172 20.5q-116 0 -193 -29t-130 -96v108h-138v-1052z" />
<glyph unicode="o" horiz-adv-x="1140" d="M153 343q0 -364 417 -364t417 364v396q0 162 -106.5 246.5t-310.5 84.5t-310.5 -84.5t-106.5 -246.5v-396zM290 343v396q0 116 64.5 165t215.5 49t215.5 -49t64.5 -165v-396q0 -138 -64.5 -193.5t-215.5 -55.5t-215.5 55.5t-64.5 193.5z" />
<glyph unicode="p" horiz-adv-x="1191" d="M197 -407h137v451q118 -65 277 -65q194 0 305.5 101t111.5 275v361q0 161 -99 257.5t-298 96.5q-87 0 -170 -32t-122 -72l-19 86h-123v-1459zM334 159v655q4 11 25.5 32t56 46t87.5 43t109 18q119 0 199 -57.5t80 -158.5v-411q0 -105 -80.5 -167.5t-204.5 -62.5 q-162 0 -272 63z" />
<glyph unicode="q" horiz-adv-x="1194" d="M162 312q0 -159 119 -246t314 -87q64 0 142.5 19t122.5 57v-462h137v1459h-179l12 -95q-9 37 -95 75t-165 38q-207 0 -307.5 -93.5t-100.5 -261.5v-403zM300 270v473q0 104 78.5 157t209.5 53q134 0 204 -43t70 -100q0 -5 -2 -17v-603q-14 -29 -93 -61.5t-184 -32.5 q-283 0 -283 174z" />
<glyph unicode="r" horiz-adv-x="764" d="M202 0h137v723q0 2 -0.5 6t-0.5 6q0 85 101.5 148.5t244.5 63.5h11l6 119q-68 -2 -122 -13t-103 -34t-83.5 -64t-53.5 -99v196h-137v-1052z" />
<glyph unicode="s" horiz-adv-x="929" d="M130 58q62 -36 139 -57.5t202 -21.5q85 0 149 16.5t102.5 43t62 66t32 79t8.5 87.5q0 56 -2.5 87.5t-12 68t-30 59t-56.5 45.5t-90 42l-244 86q-64 24 -82 52t-18 96q0 84 53.5 116t174.5 32q155 0 249 -45l38 103q-116 57 -291 57q-192 0 -276.5 -68t-84.5 -198 q0 -118 43.5 -172.5t159.5 -95.5l221 -79q36 -13 58.5 -28t35 -28t18 -38.5t6.5 -42t1 -55.5q0 -91 -51 -131t-174 -40q-77 0 -140.5 12.5t-93 25t-67.5 33.5z" />
<glyph unicode="t" horiz-adv-x="815" d="M98 940h181v-660q0 -151 103 -218.5t311 -67.5h19l14 110h-16q-161 0 -227 39t-66 145v652h272v112h-272v317h-110l-21 -317h-188v-112z" />
<glyph unicode="u" horiz-adv-x="1194" d="M180 268q0 -288 356 -288q228 0 323 140l20 -108h118v1040h-138v-775q0 -81 -81 -135t-242 -54q-218 0 -218 173v791h-138v-784z" />
<glyph unicode="v" horiz-adv-x="1064" d="M62 1052l428 -1052h131l381 1052h-140l-304 -892l-357 892h-139z" />
<glyph unicode="w" horiz-adv-x="1567" d="M42 1052l310 -1052h130l296 907l302 -907h120l325 1052h-127l-256 -864l-286 864h-157l-273 -870l-261 870h-123z" />
<glyph unicode="x" horiz-adv-x="1019" d="M70 0h126l318 442l317 -442h131l-382 534l375 518h-124l-312 -429l-308 429h-132l372 -523z" />
<glyph unicode="y" horiz-adv-x="1117" d="M92 1052l456 -1067q-31 -115 -112.5 -179.5t-181.5 -64.5q-18 0 -27 1l-12 -113q16 -1 46 -1q95 0 165.5 25.5t119 77t79.5 111t59 146.5l362 1064h-142l-300 -918l-351 918h-161z" />
<glyph unicode="z" horiz-adv-x="925" d="M145 0h687v97h-547l539 853v102h-652v-106h505l-532 -845v-101z" />
<glyph unicode="{" horiz-adv-x="928" d="M99 561q60 0 97 -4t67.5 -18.5t45.5 -34.5t25.5 -61.5t13 -90t2.5 -127.5v-14q0 -21 -0.5 -60t-0.5 -57q0 -43 2.5 -73t10 -64t22.5 -57t39 -46.5t60.5 -38t86 -26.5t116.5 -17.5t151 -5.5v117q-67 0 -115 2t-86 12.5t-62 18t-41.5 33.5t-25.5 42.5t-12.5 61.5t-5 74.5 t-0.5 96.5v150q0 105 -37.5 162.5t-82.5 68.5q120 42 120 230v142q0 68 0.5 99.5t5 78t13 65t25.5 46t41.5 36.5t62 20.5t85.5 14t115 2.5v117q-94 0 -168 -9t-125 -24.5t-87.5 -40.5t-57.5 -51t-32.5 -63.5t-15 -70.5t-3.5 -79q0 -20 1 -62.5t1 -64.5v-5q0 -63 -1 -104.5 t-7 -78.5t-12 -58t-22.5 -39t-31 -25.5t-45 -13t-57.5 -6.5t-75 -1v-99z" />
<glyph unicode="|" horiz-adv-x="643" d="M252 -192h139v1715h-139v-1715z" />
<glyph unicode="}" horiz-adv-x="929" d="M99 -117v-117q84 0 151 5.5t116.5 17.5t86 26.5t60.5 38t39 46.5t22.5 57t10 64t2.5 73q0 18 -0.5 57t-0.5 60v14q0 79 2.5 127.5t13 90t25.5 61.5t45.5 34.5t67.5 18.5t97 4v99q-48 0 -75 1t-57.5 6.5t-45 13t-31 25.5t-22.5 39t-12 58t-7 78.5t-1 104.5v5q0 22 1 64.5 t1 62.5q0 46 -3.5 79t-15 70.5t-32.5 63.5t-57.5 51t-87.5 40.5t-125 24.5t-168 9v-117q67 0 115 -2.5t85.5 -14t62 -20.5t41.5 -36.5t25.5 -46t13 -65t5 -78t0.5 -99.5v-142q0 -188 120 -230q-45 -11 -82.5 -68.5t-37.5 -162.5v-150q0 -67 -0.5 -96.5t-5 -74.5t-12.5 -61.5 t-25.5 -42.5t-41.5 -33.5t-62 -18t-86 -12.5t-115 -2z" />
<glyph unicode="~" horiz-adv-x="795" d="M48 1211h91q0 49 24.5 85t76.5 36q22 0 58.5 -21t72 -46t84.5 -46t92 -21q85 0 142.5 71.5t57.5 183.5h-90q0 -49 -25 -85t-77 -36q-26 0 -76.5 33.5t-112.5 67t-117 33.5q-85 0 -143 -72t-58 -183z" />
<glyph unicode="&#xa1;" horiz-adv-x="576" d="M200 938h176v183h-176v-183zM202 -306h168q0 243 -14.5 512.5t-29.5 418.5l-14 148h-44q-7 -60 -18 -163.5t-29.5 -388t-18.5 -527.5z" />
<glyph unicode="&#xa2;" horiz-adv-x="1112" d="M153 354q0 -77 26 -143.5t76.5 -119t132 -82.5t185.5 -30q191 0 282 66.5t113 222.5h-126q-9 -58 -22 -89.5t-44.5 -52t-77.5 -26.5t-129 -6q-279 0 -279 238v403q0 117 67 167.5t212 50.5q78 0 125.5 -8.5t81.5 -33.5t48 -69.5t14 -117.5l132 15q0 79 -20 138 t-54.5 95.5t-87 59t-110 30.5t-131.5 8q-187 0 -300.5 -91t-113.5 -236v-389zM541 52v-252h109v252h-109zM541 1017h109v252h-109v-252z" />
<glyph unicode="&#xa3;" horiz-adv-x="1266" d="M185 696h178l-69 -696h689v124h-553l62 572h501v111h-487l37 333q26 215 212 215q53 0 114.5 -17t97.5 -33.5t34 -18.5l44 102q-181 77 -311 77q-84 0 -156 -46.5t-113.5 -114.5t-51.5 -141l-38 -356h-190v-111z" />
<glyph unicode="&#xa4;" horiz-adv-x="1163" d="M150 963l155 -134q-39 -75 -39 -158t39 -158l-145 -134l39 -52l139 134q97 -104 234 -104t234 104l139 -134l39 52l-145 134q39 75 39 158t-39 158l155 134l-39 52l-149 -134q-97 104 -234 104t-234 -104l-149 134zM327 671q0 125 72.5 195.5t172.5 70.5t172.5 -70.5 t72.5 -195.5t-72.5 -195.5t-172.5 -70.5t-172.5 70.5t-72.5 195.5z" />
<glyph unicode="&#xa5;" horiz-adv-x="1326" d="M66 1428l514 -859v-569h144v569l515 859h-151l-437 -753l-432 753h-153zM233 251h840v106h-840v-106zM233 529h840v107h-840v-107z" />
<glyph unicode="&#xa6;" horiz-adv-x="617" d="M238 -195h160v662h-160v-662zM238 877h160v725h-160v-725z" />
<glyph unicode="&#xa7;" horiz-adv-x="952" d="M152 1170q0 -122 60 -174q-41 -114 -41 -195q0 -175 177 -236l298 -103q35 -12 57 -26t34.5 -27t18.5 -36t7 -41t1 -54q0 -43 -10 -73.5t-35.5 -58.5t-77.5 -42t-130 -14q-52 0 -102 5.5t-89 15t-66 17.5t-51.5 17t-27.5 10l-19 -120q23 -9 60 -19.5t128.5 -24 t189.5 -13.5q96 0 166 24t108 65.5t55.5 89t17.5 102.5q0 69 -24.5 133.5t-57.5 94.5q2 10 10.5 42.5t11.5 44.5t9 39t8.5 43t4.5 36.5t2 38.5q0 81 -45.5 140t-157.5 97l-254 83q-63 22 -81 45t-18 75q0 177 230 177q126 0 303 -53l22 122q-172 44 -316 44 q-79 0 -143.5 -14.5t-118.5 -47t-84 -90.5t-30 -139zM292 807q0 69 30 143l309 -98q96 -30 96 -128q0 -55 -39 -163l-326 119q-70 25 -70 127z" />
<glyph unicode="&#xa8;" horiz-adv-x="1060" d="M244 1222h171v150h-171v-150zM623 1222h171v150h-171v-150z" />
<glyph unicode="&#xa9;" horiz-adv-x="1789" d="M158 722q0 -206 97.5 -375t266 -265t372.5 -96q154 0 290.5 56.5t234 154t154.5 234t57 291.5q0 205 -96.5 373.5t-265.5 264.5t-374 96q-204 0 -372.5 -96t-266 -264.5t-97.5 -373.5zM267 722q0 180 80.5 326t225 229.5t323.5 83.5q180 0 324 -83.5t224 -229.5t80 -326 q0 -181 -80 -327t-224 -229.5t-324 -83.5q-179 0 -323.5 83.5t-225 230t-80.5 326.5zM553 590q0 -72 15 -123.5t52.5 -94t108.5 -64t176 -21.5q81 0 140 16t94 42.5t56 67.5t28 84.5t7 100.5v34h-116v-61q0 -112 -46 -153.5t-163 -41.5q-120 0 -176 43t-56 152v319 q0 110 56.5 155.5t174.5 45.5q115 0 162.5 -44t47.5 -157v-64l116 10v25q0 75 -12.5 128t-46 99.5t-100.5 70t-167 23.5q-105 0 -176 -22.5t-108 -67t-52 -97.5t-15 -127v-278z" />
<glyph unicode="&#xaa;" horiz-adv-x="1171" d="M206 877q0 -54 11.5 -94.5t38 -72.5t76.5 -48t122 -16q50 0 94.5 11.5t73.5 27t54.5 37.5t38.5 38t23 34q21 -72 56.5 -104.5t109.5 -32.5h5l23 90q-53 0 -71 21t-18 93v379q0 139 -65.5 214.5t-213.5 75.5q-170 0 -251.5 -51t-81.5 -174v-46h110v41q0 26 2.5 41.5 t14 35.5t34 31t65 19t102.5 8q47 0 79.5 -9.5t50 -22.5t27 -34.5t12 -38.5t2.5 -42q0 -44 -4.5 -62.5t-24.5 -25.5l-190 -70q-184 -68 -244.5 -117t-60.5 -136zM312 875q0 59 44.5 93t168.5 81l205 77v-218q-10 -65 -93 -117.5t-171 -52.5q-52 0 -82.5 6t-46.5 25 t-20.5 41.5t-4.5 64.5z" />
<glyph unicode="&#xab;" horiz-adv-x="1072" d="M174 530l270 -450l90 50l-207 400l207 400l-97 50zM530 530l270 -450l90 50l-207 400l207 400l-97 50z" />
<glyph unicode="&#xac;" horiz-adv-x="768" d="M79 537h440v-140h123v256h-563v-116z" />
<glyph unicode="&#xad;" horiz-adv-x="1058" d="M197 521h614v101h-614v-101z" />
<glyph unicode="&#xae;" horiz-adv-x="1789" d="M158 722q0 -206 97.5 -375t266 -265t372.5 -96q154 0 290.5 56.5t234 154t154.5 234t57 291.5q0 205 -96.5 373.5t-265.5 264.5t-374 96q-204 0 -372.5 -96t-266 -264.5t-97.5 -373.5zM267 722q0 180 80.5 326t225 229.5t323.5 83.5q180 0 324 -83.5t224 -229.5t80 -326 q0 -181 -80 -327t-224 -229.5t-324 -83.5q-179 0 -323.5 83.5t-225 230t-80.5 326.5zM598 319h131v333h259l180 -333h128l-184 347q152 41 152 228v14q-6 245 -263 245h-403v-834zM729 742v320h276q127 0 127 -161v-24q-2 -135 -136 -135h-267z" />
<glyph unicode="&#xaf;" horiz-adv-x="514" d="M15 1265h484v111h-484v-111z" />
<glyph unicode="&#xb0;" horiz-adv-x="1073" d="M234 1087q0 -132 95 -226t206 -94q73 0 142.5 40.5t116 116t46.5 163.5q0 131 -96 225.5t-209 94.5q-111 0 -206 -94.5t-95 -225.5zM293 1088q0 112 73.5 190t170.5 78q98 0 171.5 -78t73.5 -190q0 -111 -73.5 -189t-171.5 -78q-97 0 -170.5 78t-73.5 189z" />
<glyph unicode="&#xb1;" horiz-adv-x="1051" d="M229 0h594v93h-594v-93zM229 623h250v-284h94v284h250v86h-250v267h-94v-267h-250v-86z" />
<glyph unicode="&#xb2;" horiz-adv-x="927" d="M214 1359h98q0 50 13 81t42 44.5t56 17t74 3.5q76 0 110.5 -39.5t35.5 -117.5q0 -66 -19.5 -106t-87.5 -109l-305 -307v-64h504v76h-376l234 232q73 72 108 131.5t35 146.5q0 237 -241 237q-155 0 -218 -52.5t-63 -173.5z" />
<glyph unicode="&#xb3;" horiz-adv-x="1124" d="M229 1020q22 -155 89 -215t229 -60q129 0 218 59.5t89 170.5q0 50 -11.5 88t-28 60.5t-43 37.5t-49 21.5t-53.5 11.5q73 9 114 50t41 133q0 56 -24.5 97.5t-66 64t-88 33t-98.5 10.5q-44 0 -75 -1.5t-65 -7.5t-56.5 -16t-44.5 -28t-35 -43.5t-21.5 -62t-10.5 -83.5h89 q4 55 18.5 89t45.5 50t64 20.5t91 4.5q164 0 164 -124q0 -35 -3 -55t-15.5 -40.5t-37.5 -30t-68 -15.5t-109 -6v-75q114 0 171 -16.5t79.5 -55t22.5 -116.5q0 -146 -204 -146q-116 0 -164 39t-60 157h-94z" />
<glyph unicode="&#xb4;" horiz-adv-x="653" d="M263 1196h115l236 390h-199z" />
<glyph unicode="&#xb5;" horiz-adv-x="1211" d="M190 -471h149v481q71 -34 192 -34q233 0 337 156l28 -132h109v1052h-137v-748q0 -34 -16 -68t-49 -66.5t-96.5 -53t-146.5 -20.5q-114 0 -173.5 51t-59.5 131v774h-137v-1523z" />
<glyph unicode="&#xb6;" horiz-adv-x="1267" d="M212 1146q0 -116 92.5 -190t217.5 -79v-1213h114v1676h174v-1676h114v1764h-376q-76 0 -135 -14t-105.5 -45.5t-71 -87.5t-24.5 -135z" />
<glyph unicode="&#xb7;" horiz-adv-x="600" />
<glyph unicode="&#xb8;" horiz-adv-x="512" d="M104 -380v-84q46 -7 92 -7q117 0 182.5 53.5t65.5 129.5q0 69 -66 129t-173 79l-6 90h-36v-150q73 -2 121 -45.5t48 -95.5q0 -44 -38 -75t-115 -31q-37 0 -75 7z" />
<glyph unicode="&#xb9;" horiz-adv-x="1004" d="M203 736h581v79h-220v723h-90l-259 -24l9 -81l247 21v-639h-268v-79z" />
<glyph unicode="&#xba;" horiz-adv-x="1140" d="M153 781q0 -364 417 -364t417 364v396q0 162 -106.5 246.5t-310.5 84.5t-310.5 -84.5t-106.5 -246.5v-396zM290 781v396q0 116 64.5 165t215.5 49t215.5 -49t64.5 -165v-396q0 -138 -64.5 -193.5t-215.5 -55.5t-215.5 55.5t-64.5 193.5z" />
<glyph unicode="&#xbb;" horiz-adv-x="1072" d="M204 130l90 -50l270 450l-263 450l-97 -50l207 -400zM560 130l90 -50l270 450l-263 450l-97 -50l207 -400z" />
<glyph unicode="&#xbc;" horiz-adv-x="1815" d="M184 793h582v74h-222v655h-83l-266 -21l9 -80l258 19v-573h-278v-74zM532 0h87l720 1428h-81zM1067 205h394v-205h86v205h129v68h-129v211h-86v-211h-289l249 510h-87l-267 -526v-52z" />
<glyph unicode="&#xbd;" horiz-adv-x="1728" d="M184 793h582v74h-222v655h-83l-266 -21l9 -80l258 19v-573h-278v-74zM532 0h87l720 1428h-81zM1130 540h88q0 45 12 73.5t38 40.5t51 15.5t67 3.5q68 0 99.5 -36t32.5 -107q0 -59 -18 -95.5t-79 -98.5l-276 -278v-58h456v69h-340l212 210q65 64 97 118.5t32 132.5 q0 215 -218 215q-140 0 -197 -47.5t-57 -157.5z" />
<glyph unicode="&#xbe;" horiz-adv-x="1546" d="M192 1027q20 -137 79.5 -190.5t202.5 -53.5q115 0 194 52.5t79 151.5q0 55 -14 93t-40 58t-50.5 29.5t-59.5 14.5q65 8 101 44t36 118q0 50 -21.5 87t-58.5 56.5t-78 29t-88 9.5q-70 0 -112 -6t-81.5 -27t-58 -65.5t-21.5 -116.5h79q3 49 16 79t40.5 44.5t57 18.5t80.5 4 q146 0 146 -110q0 -39 -5 -59.5t-25 -39t-62.5 -25.5t-114.5 -7v-66q147 0 194.5 -33t47.5 -134q0 -130 -181 -130q-103 0 -145 34.5t-53 139.5h-84zM532 0h87l720 1428h-81zM1067 205h394v-205h86v205h129v68h-129v211h-86v-211h-289l249 510h-87l-267 -526v-52z" />
<glyph unicode="&#xbf;" horiz-adv-x="1043" d="M133 -27q0 -60 19 -111t61.5 -96.5t121.5 -72t188 -26.5q405 0 405 320v43h-133v-34q0 -101 -62.5 -152t-209.5 -51q-131 0 -189.5 47.5t-58.5 143.5q0 41 12 82.5t43.5 95.5t46.5 77t60 88l246 357h-118l-181 -220q-125 -152 -188 -263.5t-63 -227.5zM550 932h177v183 h-177v-183z" />
<glyph unicode="&#xc0;" horiz-adv-x="1361" d="M87 0h150l107 283h682l107 -283h141l-539 1428h-107zM367 1962l237 -390h115l-152 390h-200zM380 393l306 836l306 -836h-612z" />
<glyph unicode="&#xc1;" horiz-adv-x="1361" d="M87 0h150l107 283h682l107 -283h141l-539 1428h-107zM380 393l306 836l306 -836h-612zM635 1572h115l236 390h-199z" />
<glyph unicode="&#xc2;" horiz-adv-x="1361" d="M87 0h150l107 283h682l107 -283h141l-539 1428h-107zM380 393l306 836l306 -836h-612zM420 1582h150l116 144l108 -144h146l-203 246h-105z" />
<glyph unicode="&#xc3;" horiz-adv-x="1361" d="M87 0h150l107 283h682l107 -283h141l-539 1428h-107zM380 393l306 836l306 -836h-612zM402 1784q0 -110 40.5 -153t127.5 -43q43 0 81 15.5t60 34.5t45 37.5t39 22.5q10 2 13 2q29 0 47.5 -28t18.5 -71h84q0 101 -41.5 148t-125.5 47q-45 0 -82.5 -17t-59 -38t-47 -38 t-48.5 -17q-31 0 -49.5 27t-18.5 71h-84z" />
<glyph unicode="&#xc4;" horiz-adv-x="1361" d="M87 0h150l107 283h682l107 -283h141l-539 1428h-107zM380 393l306 836l306 -836h-612zM397 1598h171v150h-171v-150zM776 1598h171v150h-171v-150z" />
<glyph unicode="&#xc5;" horiz-adv-x="1361" d="M87 0h150l107 283h682l107 -283h141l-539 1428h-107zM380 393l306 836l306 -836h-612zM506 1675q0 -54 28.5 -91t65.5 -51.5t78 -14.5t78 14.5t65.5 51.5t28.5 91q0 79 -53 118.5t-119 39.5q-41 0 -78 -14.5t-65.5 -52t-28.5 -91.5zM574 1676q0 56 30.5 81t74.5 25 t73.5 -26t29.5 -82t-30 -81t-74 -25q-43 0 -73.5 25.5t-30.5 82.5z" />
<glyph unicode="&#xc6;" horiz-adv-x="1597" d="M107 5l140 -5l70 283h546v-283h605v104h-468v571h404v113h-404v536h460v103h-996zM341 381l216 943h306v-943h-522z" />
<glyph unicode="&#xc7;" horiz-adv-x="1424" d="M190 487q0 -98 13.5 -171.5t50.5 -139t98 -107t160 -65.5t233 -24q128 0 217.5 16.5t147 47.5t90 85t45 117.5t13.5 156.5v10h-131v-11q0 -53 -5 -94t-17 -72.5t-26.5 -53.5t-40.5 -37t-51 -24t-65.5 -13.5t-77.5 -6t-93 -1.5q-110 0 -183 15t-128 54t-80 109.5 t-25 177.5v500q0 108 24.5 180t76.5 114.5t125.5 60.5t180.5 18q53 0 86.5 -1t73.5 -4t63.5 -9.5t50.5 -17.5t42 -27t30.5 -39t22.5 -53.5t11.5 -69.5t4.5 -89v-10l131 7v10q0 119 -24.5 196.5t-84.5 129.5t-158 74t-249 22q-135 0 -233.5 -26t-159 -70t-97 -113.5 t-49.5 -145t-13 -175.5v-431zM686 -380v-84q46 -7 92 -7q117 0 182.5 53.5t65.5 129.5q0 69 -66 129t-173 79l-6 90h-36v-150q73 -2 121 -45.5t48 -95.5q0 -44 -38 -75t-115 -31q-37 0 -75 7z" />
<glyph unicode="&#xc8;" horiz-adv-x="1218" d="M222 0h877v106h-733v578h635v112h-635v526h720v106h-864v-1428zM376 1962l237 -390h115l-152 390h-200z" />
<glyph unicode="&#xc9;" horiz-adv-x="1218" d="M222 0h877v106h-733v578h635v112h-635v526h720v106h-864v-1428zM644 1572h115l236 390h-199z" />
<glyph unicode="&#xca;" horiz-adv-x="1218" d="M222 0h877v106h-733v578h635v112h-635v526h720v106h-864v-1428zM429 1582h150l116 144l108 -144h146l-203 246h-105z" />
<glyph unicode="&#xcb;" horiz-adv-x="1218" d="M222 0h877v106h-733v578h635v112h-635v526h720v106h-864v-1428zM406 1598h171v150h-171v-150zM785 1598h171v150h-171v-150z" />
<glyph unicode="&#xcc;" horiz-adv-x="1122" d="M209 0h704v107h-280v1215h280v106h-704v-106h280v-1215h-280v-107zM241 1962l237 -390h115l-152 390h-200z" />
<glyph unicode="&#xcd;" horiz-adv-x="1122" d="M209 0h704v107h-280v1215h280v106h-704v-106h280v-1215h-280v-107zM509 1572h115l236 390h-199z" />
<glyph unicode="&#xce;" horiz-adv-x="1122" d="M209 0h704v107h-280v1215h280v106h-704v-106h280v-1215h-280v-107zM294 1582h150l116 144l108 -144h146l-203 246h-105z" />
<glyph unicode="&#xcf;" horiz-adv-x="1122" d="M209 0h704v107h-280v1215h280v106h-704v-106h280v-1215h-280v-107zM271 1598h171v150h-171v-150zM650 1598h171v150h-171v-150z" />
<glyph unicode="&#xd0;" horiz-adv-x="1497" d="M35 706h614v101h-614v-101zM222 0h537q273 0 410 113.5t137 352.5v492q0 104 -29.5 187t-93 148t-171.5 100t-256 35h-534v-1428zM367 101v1224h375q70 0 123.5 -6.5t112.5 -29t97 -61.5t63 -108.5t25 -165.5v-497q0 -68 -13 -122.5t-33.5 -91.5t-54 -63.5t-67 -41.5 t-79.5 -23.5t-84.5 -11t-89.5 -2.5h-375z" />
<glyph unicode="&#xd1;" horiz-adv-x="1544" d="M222 0h123v1169l824 -1169h153v1428h-125v-1242l-864 1242h-111v-1428zM482 1784q0 -110 40.5 -153t127.5 -43q43 0 81 15.5t60 34.5t45 37.5t39 22.5q10 2 13 2q29 0 47.5 -28t18.5 -71h84q0 101 -41.5 148t-125.5 47q-45 0 -82.5 -17t-59 -38t-47 -38t-48.5 -17 q-31 0 -49.5 27t-18.5 71h-84z" />
<glyph unicode="&#xd2;" horiz-adv-x="1500" d="M197 477q0 -97 14.5 -170t52.5 -136.5t100.5 -104t161 -63.5t232.5 -23q129 0 225 24.5t157 67.5t98 109t51.5 140t14.5 169v426q0 81 -10 147t-33.5 128t-64.5 107.5t-100 80t-144.5 52t-193.5 17.5q-134 0 -233 -25t-161.5 -68t-100 -110.5t-52 -143t-14.5 -173.5v-451 zM341 447v516q0 107 26 179t81 113t128.5 57.5t181.5 16.5t180 -16t124 -57t75.5 -112.5t23.5 -180.5v-516q0 -107 -23 -175.5t-75.5 -106t-123 -51.5t-181.5 -14q-88 0 -150 8.5t-115.5 31t-85 61t-49 99.5t-17.5 147zM448 1962l237 -390h115l-152 390h-200z" />
<glyph unicode="&#xd3;" horiz-adv-x="1500" d="M197 477q0 -97 14.5 -170t52.5 -136.5t100.5 -104t161 -63.5t232.5 -23q129 0 225 24.5t157 67.5t98 109t51.5 140t14.5 169v426q0 81 -10 147t-33.5 128t-64.5 107.5t-100 80t-144.5 52t-193.5 17.5q-134 0 -233 -25t-161.5 -68t-100 -110.5t-52 -143t-14.5 -173.5v-451 zM341 447v516q0 107 26 179t81 113t128.5 57.5t181.5 16.5t180 -16t124 -57t75.5 -112.5t23.5 -180.5v-516q0 -107 -23 -175.5t-75.5 -106t-123 -51.5t-181.5 -14q-88 0 -150 8.5t-115.5 31t-85 61t-49 99.5t-17.5 147zM716 1572h115l236 390h-199z" />
<glyph unicode="&#xd4;" horiz-adv-x="1500" d="M197 477q0 -97 14.5 -170t52.5 -136.5t100.5 -104t161 -63.5t232.5 -23q129 0 225 24.5t157 67.5t98 109t51.5 140t14.5 169v426q0 81 -10 147t-33.5 128t-64.5 107.5t-100 80t-144.5 52t-193.5 17.5q-134 0 -233 -25t-161.5 -68t-100 -110.5t-52 -143t-14.5 -173.5v-451 zM341 447v516q0 107 26 179t81 113t128.5 57.5t181.5 16.5t180 -16t124 -57t75.5 -112.5t23.5 -180.5v-516q0 -107 -23 -175.5t-75.5 -106t-123 -51.5t-181.5 -14q-88 0 -150 8.5t-115.5 31t-85 61t-49 99.5t-17.5 147zM501 1582h150l116 144l108 -144h146l-203 246h-105z " />
<glyph unicode="&#xd5;" horiz-adv-x="1500" d="M197 477q0 -97 14.5 -170t52.5 -136.5t100.5 -104t161 -63.5t232.5 -23q129 0 225 24.5t157 67.5t98 109t51.5 140t14.5 169v426q0 81 -10 147t-33.5 128t-64.5 107.5t-100 80t-144.5 52t-193.5 17.5q-134 0 -233 -25t-161.5 -68t-100 -110.5t-52 -143t-14.5 -173.5v-451 zM341 447v516q0 107 26 179t81 113t128.5 57.5t181.5 16.5t180 -16t124 -57t75.5 -112.5t23.5 -180.5v-516q0 -107 -23 -175.5t-75.5 -106t-123 -51.5t-181.5 -14q-88 0 -150 8.5t-115.5 31t-85 61t-49 99.5t-17.5 147zM483 1784q0 -110 40.5 -153t127.5 -43q43 0 81 15.5 t60 34.5t45 37.5t39 22.5q10 2 13 2q29 0 47.5 -28t18.5 -71h84q0 101 -41.5 148t-125.5 47q-45 0 -82.5 -17t-59 -38t-47 -38t-48.5 -17q-31 0 -49.5 27t-18.5 71h-84z" />
<glyph unicode="&#xd6;" horiz-adv-x="1500" d="M197 477q0 -97 14.5 -170t52.5 -136.5t100.5 -104t161 -63.5t232.5 -23q129 0 225 24.5t157 67.5t98 109t51.5 140t14.5 169v426q0 81 -10 147t-33.5 128t-64.5 107.5t-100 80t-144.5 52t-193.5 17.5q-134 0 -233 -25t-161.5 -68t-100 -110.5t-52 -143t-14.5 -173.5v-451 zM341 447v516q0 107 26 179t81 113t128.5 57.5t181.5 16.5t180 -16t124 -57t75.5 -112.5t23.5 -180.5v-516q0 -107 -23 -175.5t-75.5 -106t-123 -51.5t-181.5 -14q-88 0 -150 8.5t-115.5 31t-85 61t-49 99.5t-17.5 147zM478 1598h171v150h-171v-150zM857 1598h171v150h-171 v-150z" />
<glyph unicode="&#xd7;" horiz-adv-x="942" d="M114 344l109 -128l248 242l248 -242l109 128l-236 232l236 230l-109 131l-248 -243l-248 243l-109 -131l236 -230z" />
<glyph unicode="&#xd8;" horiz-adv-x="1510" d="M197 477q0 -97 14.5 -170t52.5 -136.5t100.5 -104t161 -63.5t232.5 -23q129 0 225 24.5t157 67.5t98 109t51.5 140t14.5 169v426q0 81 -10 147t-33.5 128t-64.5 107.5t-100 80t-144.5 52t-193.5 17.5q-134 0 -233 -25t-161.5 -68t-100 -110.5t-52 -143t-14.5 -173.5v-451 zM268 -97l57 -43l888 1704l-82 36zM341 447v516q0 107 26 179t81 113t128.5 57.5t181.5 16.5t180 -16t124 -57t75.5 -112.5t23.5 -180.5v-516q0 -107 -23 -175.5t-75.5 -106t-123 -51.5t-181.5 -14q-88 0 -150 8.5t-115.5 31t-85 61t-49 99.5t-17.5 147z" />
<glyph unicode="&#xd9;" horiz-adv-x="1497" d="M205 476q0 -85 13.5 -153.5t51 -134.5t98 -110t160 -71t231.5 -27q124 0 218.5 26.5t153.5 70.5t96 108t51 132.5t14 151.5v958h-145v-977q0 -90 -22 -155t-56 -102t-88 -58.5t-104 -28t-118 -6.5q-67 0 -119.5 6.5t-109.5 28.5t-94 58.5t-61.5 102t-24.5 154.5v977h-145 v-951zM441 1962l237 -390h115l-152 390h-200z" />
<glyph unicode="&#xda;" horiz-adv-x="1497" d="M205 476q0 -85 13.5 -153.5t51 -134.5t98 -110t160 -71t231.5 -27q124 0 218.5 26.5t153.5 70.5t96 108t51 132.5t14 151.5v958h-145v-977q0 -90 -22 -155t-56 -102t-88 -58.5t-104 -28t-118 -6.5q-67 0 -119.5 6.5t-109.5 28.5t-94 58.5t-61.5 102t-24.5 154.5v977h-145 v-951zM709 1572h115l236 390h-199z" />
<glyph unicode="&#xdb;" horiz-adv-x="1497" d="M205 476q0 -85 13.5 -153.5t51 -134.5t98 -110t160 -71t231.5 -27q124 0 218.5 26.5t153.5 70.5t96 108t51 132.5t14 151.5v958h-145v-977q0 -90 -22 -155t-56 -102t-88 -58.5t-104 -28t-118 -6.5q-67 0 -119.5 6.5t-109.5 28.5t-94 58.5t-61.5 102t-24.5 154.5v977h-145 v-951zM494 1582h150l116 144l108 -144h146l-203 246h-105z" />
<glyph unicode="&#xdc;" horiz-adv-x="1497" d="M205 476q0 -85 13.5 -153.5t51 -134.5t98 -110t160 -71t231.5 -27q124 0 218.5 26.5t153.5 70.5t96 108t51 132.5t14 151.5v958h-145v-977q0 -90 -22 -155t-56 -102t-88 -58.5t-104 -28t-118 -6.5q-67 0 -119.5 6.5t-109.5 28.5t-94 58.5t-61.5 102t-24.5 154.5v977h-145 v-951zM471 1598h171v150h-171v-150zM850 1598h171v150h-171v-150z" />
<glyph unicode="&#xdd;" horiz-adv-x="1305" d="M66 1428l514 -859v-569h144v569l515 859h-151l-437 -753l-432 753h-153zM628 1572h115l236 390h-199z" />
<glyph unicode="&#xde;" horiz-adv-x="1295" d="M210 0h145v316h437q52 0 99 11.5t94.5 41.5t81.5 77.5t55.5 125.5t21.5 178q0 118 -29.5 205.5t-82 137t-116 73t-139.5 23.5h-422v239h-145v-1428zM355 434v634h415q50 0 87.5 -14.5t59.5 -43t36 -57.5t20 -72.5t7.5 -72.5t1.5 -72q0 -46 -3.5 -82.5t-16.5 -79.5 t-34.5 -72t-61.5 -48.5t-95 -19.5h-416z" />
<glyph unicode="&#xdf;" horiz-adv-x="1278" d="M220 0h115v1132q0 43 10 76.5t24.5 55t41 36.5t48.5 23t59 12t60 4.5t63 0.5h8h25q28 0 46 -1t42.5 -5.5t41 -13t34 -24.5t28 -38.5t17 -56.5t6.5 -77q0 -74 -25 -116t-90.5 -63.5t-184.5 -21.5v-113q64 2 92 2q85 0 144 -11.5t108.5 -42t74 -89t24.5 -146.5 q0 -57 -9 -104.5t-23 -82.5t-38 -63t-48 -46t-60.5 -32t-67 -22t-75.5 -14t-78.5 -9t-83.5 -7t-83 -8l18 -123q89 0 160.5 6t141 21.5t121.5 41t97 66t73.5 95.5t44.5 130t16 169q0 109 -21.5 182.5t-53 105t-62.5 46.5t-56.5 21.5t-28.5 16.5q40 11 61 31t33 67.5t12 131.5 q0 158 -89 242t-258 84q-75 0 -132 -6t-121.5 -29t-105.5 -62t-68.5 -109.5t-27.5 -168.5v-1094z" />
<glyph unicode="&#xe0;" horiz-adv-x="1171" d="M162 264q0 -67 14 -116.5t47 -89t94.5 -59.5t150.5 -20q62 0 116.5 14t90.5 33.5t67.5 46.5t47.5 47t29 42q26 -89 69.5 -129.5t135.5 -40.5h6l28 112q-66 0 -88 26t-22 114v468q0 172 -80.5 265t-263.5 93q-210 0 -311 -62.5t-101 -214.5v-57h136v50q0 32 3 51.5 t17.5 44t42 38t80 23.5t127.5 10q57 0 97.5 -11.5t62 -27.5t33.5 -42.5t15 -48t3 -52.5q0 -54 -6 -77t-30 -31l-235 -87q-227 -84 -301.5 -144.5t-74.5 -167.5zM268 1586l237 -390h115l-152 390h-200zM293 262q0 73 55 114.5t207 99.5l254 95v-269q-13 -80 -115.5 -145 t-210.5 -65q-65 0 -102.5 8t-57 31t-25 51t-5.5 80z" />
<glyph unicode="&#xe1;" horiz-adv-x="1171" d="M162 264q0 -67 14 -116.5t47 -89t94.5 -59.5t150.5 -20q62 0 116.5 14t90.5 33.5t67.5 46.5t47.5 47t29 42q26 -89 69.5 -129.5t135.5 -40.5h6l28 112q-66 0 -88 26t-22 114v468q0 172 -80.5 265t-263.5 93q-210 0 -311 -62.5t-101 -214.5v-57h136v50q0 32 3 51.5 t17.5 44t42 38t80 23.5t127.5 10q57 0 97.5 -11.5t62 -27.5t33.5 -42.5t15 -48t3 -52.5q0 -54 -6 -77t-30 -31l-235 -87q-227 -84 -301.5 -144.5t-74.5 -167.5zM293 262q0 73 55 114.5t207 99.5l254 95v-269q-13 -80 -115.5 -145t-210.5 -65q-65 0 -102.5 8t-57 31t-25 51 t-5.5 80zM536 1196h115l236 390h-199z" />
<glyph unicode="&#xe2;" horiz-adv-x="1171" d="M162 264q0 -67 14 -116.5t47 -89t94.5 -59.5t150.5 -20q62 0 116.5 14t90.5 33.5t67.5 46.5t47.5 47t29 42q26 -89 69.5 -129.5t135.5 -40.5h6l28 112q-66 0 -88 26t-22 114v468q0 172 -80.5 265t-263.5 93q-210 0 -311 -62.5t-101 -214.5v-57h136v50q0 32 3 51.5 t17.5 44t42 38t80 23.5t127.5 10q57 0 97.5 -11.5t62 -27.5t33.5 -42.5t15 -48t3 -52.5q0 -54 -6 -77t-30 -31l-235 -87q-227 -84 -301.5 -144.5t-74.5 -167.5zM293 262q0 73 55 114.5t207 99.5l254 95v-269q-13 -80 -115.5 -145t-210.5 -65q-65 0 -102.5 8t-57 31t-25 51 t-5.5 80zM321 1206h150l116 144l108 -144h146l-203 246h-105z" />
<glyph unicode="&#xe3;" horiz-adv-x="1171" d="M162 264q0 -67 14 -116.5t47 -89t94.5 -59.5t150.5 -20q62 0 116.5 14t90.5 33.5t67.5 46.5t47.5 47t29 42q26 -89 69.5 -129.5t135.5 -40.5h6l28 112q-66 0 -88 26t-22 114v468q0 172 -80.5 265t-263.5 93q-210 0 -311 -62.5t-101 -214.5v-57h136v50q0 32 3 51.5 t17.5 44t42 38t80 23.5t127.5 10q57 0 97.5 -11.5t62 -27.5t33.5 -42.5t15 -48t3 -52.5q0 -54 -6 -77t-30 -31l-235 -87q-227 -84 -301.5 -144.5t-74.5 -167.5zM293 262q0 73 55 114.5t207 99.5l254 95v-269q-13 -80 -115.5 -145t-210.5 -65q-65 0 -102.5 8t-57 31t-25 51 t-5.5 80zM303 1408q0 -110 40.5 -153t127.5 -43q43 0 81 15.5t60 34.5t45 37.5t39 22.5q10 2 13 2q29 0 47.5 -28t18.5 -71h84q0 101 -41.5 148t-125.5 47q-45 0 -82.5 -17t-59 -38t-47 -38t-48.5 -17q-31 0 -49.5 27t-18.5 71h-84z" />
<glyph unicode="&#xe4;" horiz-adv-x="1171" d="M162 264q0 -67 14 -116.5t47 -89t94.5 -59.5t150.5 -20q62 0 116.5 14t90.5 33.5t67.5 46.5t47.5 47t29 42q26 -89 69.5 -129.5t135.5 -40.5h6l28 112q-66 0 -88 26t-22 114v468q0 172 -80.5 265t-263.5 93q-210 0 -311 -62.5t-101 -214.5v-57h136v50q0 32 3 51.5 t17.5 44t42 38t80 23.5t127.5 10q57 0 97.5 -11.5t62 -27.5t33.5 -42.5t15 -48t3 -52.5q0 -54 -6 -77t-30 -31l-235 -87q-227 -84 -301.5 -144.5t-74.5 -167.5zM293 262q0 73 55 114.5t207 99.5l254 95v-269q-13 -80 -115.5 -145t-210.5 -65q-65 0 -102.5 8t-57 31t-25 51 t-5.5 80zM298 1222h171v150h-171v-150zM677 1222h171v150h-171v-150z" />
<glyph unicode="&#xe5;" horiz-adv-x="1171" d="M162 264q0 -67 14 -116.5t47 -89t94.5 -59.5t150.5 -20q62 0 116.5 14t90.5 33.5t67.5 46.5t47.5 47t29 42q26 -89 69.5 -129.5t135.5 -40.5h6l28 112q-66 0 -88 26t-22 114v468q0 172 -80.5 265t-263.5 93q-210 0 -311 -62.5t-101 -214.5v-57h136v50q0 32 3 51.5 t17.5 44t42 38t80 23.5t127.5 10q57 0 97.5 -11.5t62 -27.5t33.5 -42.5t15 -48t3 -52.5q0 -54 -6 -77t-30 -31l-235 -87q-227 -84 -301.5 -144.5t-74.5 -167.5zM293 262q0 73 55 114.5t207 99.5l254 95v-269q-13 -80 -115.5 -145t-210.5 -65q-65 0 -102.5 8t-57 31t-25 51 t-5.5 80zM407 1299q0 -54 28.5 -91t65.5 -51.5t78 -14.5t78 14.5t65.5 51.5t28.5 91q0 79 -53 118.5t-119 39.5q-41 0 -78 -14.5t-65.5 -52t-28.5 -91.5zM475 1300q0 56 30.5 81t74.5 25t73.5 -26t29.5 -82t-30 -81t-74 -25q-43 0 -73.5 25.5t-30.5 82.5z" />
<glyph unicode="&#xe6;" horiz-adv-x="1745" d="M142 286q0 -59 21.5 -112.5t63.5 -97.5t112 -70.5t159 -26.5q180 0 267.5 64.5t99.5 163.5q14 -44 37 -80.5t60 -72t96 -55.5t133 -20q109 0 181 17t117.5 57.5t68 97.5t34.5 146h-121q-5 -48 -13.5 -81.5t-26 -56t-36.5 -35.5t-53.5 -20t-66.5 -8.5t-87 -1.5 q-245 0 -245 238v177h657v257q0 143 -106 223.5t-291 80.5q-231 0 -311 -148q-22 72 -101.5 110t-190.5 38q-106 0 -178 -13t-127 -46.5t-80.5 -93.5t-25.5 -150v-29h136v22q0 29 1 45t6 40t14.5 37t28.5 28.5t46.5 23.5t69 13.5t95.5 5.5q52 0 90.5 -6.5t62 -20t38.5 -27 t21 -35t8 -36.5t2 -37v-16v-8q0 -31 -2 -48.5t-14 -42.5t-35.5 -41.5t-68 -34.5t-110.5 -32q-169 -35 -263 -74t-133.5 -87.5t-39.5 -120.5zM275 278q0 28 12 50t30 35.5t51 26t60.5 19.5t75 19t79.5 22q79 23 132.5 50t73.5 47t20 35q0 5 -3 8v-299q-13 -81 -108 -137 t-204 -56q-219 0 -219 180zM943 620v140q0 105 61 151t194 46q135 0 207 -38.5t72 -132.5v-166h-534z" />
<glyph unicode="&#xe7;" horiz-adv-x="1075" d="M153 354q0 -77 26 -143.5t76.5 -119t132 -82.5t185.5 -30q191 0 282 66.5t113 222.5h-126q-9 -58 -22 -89.5t-44.5 -52t-77.5 -26.5t-129 -6q-279 0 -279 238v403q0 117 67 167.5t212 50.5q78 0 125.5 -8.5t81.5 -33.5t48 -69.5t14 -117.5l132 15q0 79 -20 138 t-54.5 95.5t-87 59t-110 30.5t-131.5 8q-187 0 -300.5 -91t-113.5 -236v-389zM461 -380v-84q46 -7 92 -7q117 0 182.5 53.5t65.5 129.5q0 69 -66 129t-173 79l-6 90h-36v-150q73 -2 121 -45.5t48 -95.5q0 -44 -38 -75t-115 -31q-37 0 -75 7z" />
<glyph unicode="&#xe8;" horiz-adv-x="1112" d="M153 397q0 -86 9.5 -147t35.5 -115t71.5 -86.5t119 -51t176.5 -18.5q152 0 234 25.5t119 82.5t49 166h-117q-5 -45 -18 -73.5t-31 -46t-55.5 -25.5t-75 -10t-108.5 -2q-90 0 -144.5 16t-82.5 55.5t-36.5 87.5t-8.5 130v134h687v247q0 146 -103.5 225t-301.5 79 q-419 0 -419 -334v-339zM254 1586l237 -390h115l-152 390h-200zM290 622v131q0 200 278 200q134 0 203 -39.5t69 -134.5v-157h-550z" />
<glyph unicode="&#xe9;" horiz-adv-x="1112" d="M153 397q0 -86 9.5 -147t35.5 -115t71.5 -86.5t119 -51t176.5 -18.5q152 0 234 25.5t119 82.5t49 166h-117q-5 -45 -18 -73.5t-31 -46t-55.5 -25.5t-75 -10t-108.5 -2q-90 0 -144.5 16t-82.5 55.5t-36.5 87.5t-8.5 130v134h687v247q0 146 -103.5 225t-301.5 79 q-419 0 -419 -334v-339zM290 622v131q0 200 278 200q134 0 203 -39.5t69 -134.5v-157h-550zM522 1196h115l236 390h-199z" />
<glyph unicode="&#xea;" horiz-adv-x="1112" d="M153 397q0 -86 9.5 -147t35.5 -115t71.5 -86.5t119 -51t176.5 -18.5q152 0 234 25.5t119 82.5t49 166h-117q-5 -45 -18 -73.5t-31 -46t-55.5 -25.5t-75 -10t-108.5 -2q-90 0 -144.5 16t-82.5 55.5t-36.5 87.5t-8.5 130v134h687v247q0 146 -103.5 225t-301.5 79 q-419 0 -419 -334v-339zM290 622v131q0 200 278 200q134 0 203 -39.5t69 -134.5v-157h-550zM306 1206h150l116 144l108 -144h146l-203 246h-105z" />
<glyph unicode="&#xeb;" horiz-adv-x="1112" d="M153 397q0 -86 9.5 -147t35.5 -115t71.5 -86.5t119 -51t176.5 -18.5q152 0 234 25.5t119 82.5t49 166h-117q-5 -45 -18 -73.5t-31 -46t-55.5 -25.5t-75 -10t-108.5 -2q-90 0 -144.5 16t-82.5 55.5t-36.5 87.5t-8.5 130v134h687v247q0 146 -103.5 225t-301.5 79 q-419 0 -419 -334v-339zM284 1222h171v150h-171v-150zM290 622v131q0 200 278 200q134 0 203 -39.5t69 -134.5v-157h-550zM663 1222h171v150h-171v-150z" />
<glyph unicode="&#xec;" horiz-adv-x="548" d="M-20 1586l237 -390h115l-152 390h-200zM205 0h150v1052h-150v-1052z" />
<glyph unicode="&#xed;" horiz-adv-x="548" d="M205 0h150v1052h-150v-1052zM249 1196h115l236 390h-199z" />
<glyph unicode="&#xee;" horiz-adv-x="548" d="M33 1206h150l116 144l108 -144h146l-203 246h-105zM205 0h150v1052h-150v-1052z" />
<glyph unicode="&#xef;" horiz-adv-x="548" d="M10 1222h171v150h-171v-150zM205 0h150v1052h-150v-1052zM389 1222h171v150h-171v-150z" />
<glyph unicode="&#xf0;" horiz-adv-x="1066" d="M140 297q0 -315 393 -315q60 0 109.5 6t86 15.5t65 26t47.5 32t32 39.5t19.5 43t10.5 48t4.5 48t0.5 50v18v548v45q0 60 -2.5 103t-14 107.5t-32.5 113.5t-62 101t-99 88l114 131l-80 49l-110 -133q-103 25 -203 25q-104 0 -192 -24l-31 -105q82 13 163 13q88 0 168 -15 l-162 -212l81 -49l172 222q181 -125 181 -363q0 -16 -2 -48q-82 70 -246 70q-193 0 -302 -86t-109 -226v-366zM273 293v383q0 93 71 137t189 44q55 0 138 -13t117 -33l-1 3q-4 0 -6.5 -112.5t-4.5 -247.5l-2 -136q1 -13 1 -39q0 -32 -4.5 -56.5t-19 -51.5t-40 -44t-71 -28.5 t-107.5 -11.5q-54 0 -98 10t-82 32.5t-59 64t-21 99.5z" />
<glyph unicode="&#xf1;" horiz-adv-x="1195" d="M197 0h138v767q0 82 81 138t242 56q118 0 168 -42t50 -122v-797h138v790q0 63 -17.5 111.5t-56.5 87.5t-110 59.5t-172 20.5q-116 0 -193 -29t-130 -96v108h-138v-1052zM345 1408q0 -110 40.5 -153t127.5 -43q43 0 81 15.5t60 34.5t45 37.5t39 22.5q10 2 13 2 q29 0 47.5 -28t18.5 -71h84q0 101 -41.5 148t-125.5 47q-45 0 -82.5 -17t-59 -38t-47 -38t-48.5 -17q-31 0 -49.5 27t-18.5 71h-84z" />
<glyph unicode="&#xf2;" horiz-adv-x="1151" d="M261 1586l237 -390h115l-152 390h-200z" />
<glyph unicode="&#xf3;" horiz-adv-x="1151" d="M530 1196h115l236 390h-199z" />
<glyph unicode="&#xf4;" horiz-adv-x="1151" d="M314 1206h150l116 144l108 -144h146l-203 246h-105z" />
<glyph unicode="&#xf5;" horiz-adv-x="1151" d="M296 1408q0 -110 40.5 -153t127.5 -43q43 0 81 15.5t60 34.5t45 37.5t39 22.5q10 2 13 2q29 0 47.5 -28t18.5 -71h84q0 101 -41.5 148t-125.5 47q-45 0 -82.5 -17t-59 -38t-47 -38t-48.5 -17q-31 0 -49.5 27t-18.5 71h-84z" />
<glyph unicode="&#xf6;" horiz-adv-x="1151" d="M291 1222h171v150h-171v-150zM670 1222h171v150h-171v-150z" />
<glyph unicode="&#xf7;" horiz-adv-x="1038" d="M93 468h852v121h-852v-121zM427 88h192v197h-192v-197zM427 784h192v197h-192v-197z" />
<glyph unicode="&#xf8;" horiz-adv-x="1140" d="M153 343q0 -364 417 -364t417 364v396q0 162 -106.5 246.5t-310.5 84.5t-310.5 -84.5t-106.5 -246.5v-396zM204 -130l60 -27l658 1340l-61 27zM290 343v396q0 116 64.5 165t215.5 49t215.5 -49t64.5 -165v-396q0 -138 -64.5 -193.5t-215.5 -55.5t-215.5 55.5t-64.5 193.5 z" />
<glyph unicode="&#xf9;" horiz-adv-x="1194" d="M180 268q0 -288 356 -288q228 0 323 140l20 -108h118v1040h-138v-775q0 -81 -81 -135t-242 -54q-218 0 -218 173v791h-138v-784zM299 1586l237 -390h115l-152 390h-200z" />
<glyph unicode="&#xfa;" horiz-adv-x="1194" d="M180 268q0 -288 356 -288q228 0 323 140l20 -108h118v1040h-138v-775q0 -81 -81 -135t-242 -54q-218 0 -218 173v791h-138v-784zM568 1196h115l236 390h-199z" />
<glyph unicode="&#xfb;" horiz-adv-x="1194" d="M180 268q0 -288 356 -288q228 0 323 140l20 -108h118v1040h-138v-775q0 -81 -81 -135t-242 -54q-218 0 -218 173v791h-138v-784zM352 1206h150l116 144l108 -144h146l-203 246h-105z" />
<glyph unicode="&#xfc;" horiz-adv-x="1194" d="M180 268q0 -288 356 -288q228 0 323 140l20 -108h118v1040h-138v-775q0 -81 -81 -135t-242 -54q-218 0 -218 173v791h-138v-784zM330 1222h171v150h-171v-150zM709 1222h171v150h-171v-150z" />
<glyph unicode="&#xfd;" horiz-adv-x="1117" d="M92 1052l456 -1067q-31 -115 -112.5 -179.5t-181.5 -64.5q-18 0 -27 1l-12 -113q16 -1 46 -1q95 0 165.5 25.5t119 77t79.5 111t59 146.5l362 1064h-142l-300 -918l-351 918h-161zM547 1196h115l236 390h-199z" />
<glyph unicode="&#xfe;" horiz-adv-x="1183" d="M188 -407h137v451q121 -68 277 -68q194 0 307 102.5t113 276.5v361q0 160 -100 254.5t-300 94.5q-86 0 -168 -28t-129 -68v531h-133zM325 159v655q4 10 25 31t55.5 45.5t87.5 42.5t109 18q120 0 201.5 -58t81.5 -159v-408q0 -105 -82.5 -171.5t-206.5 -66.5 q-147 0 -271 71z" />
<glyph unicode="&#xff;" horiz-adv-x="1117" d="M92 1052l456 -1067q-31 -115 -112.5 -179.5t-181.5 -64.5q-18 0 -27 1l-12 -113q16 -1 46 -1q95 0 165.5 25.5t119 77t79.5 111t59 146.5l362 1064h-142l-300 -918l-351 918h-161zM309 1222h171v150h-171v-150zM688 1222h171v150h-171v-150z" />
<glyph unicode="&#x152;" horiz-adv-x="1511" d="M197 512q0 -80 11 -144t36.5 -123.5t71 -103t112 -76t163 -49t219.5 -16.5h524v126h-466v537h405v125h-405v513h453v127h-511h-3q-123 0 -219 -17t-162 -51.5t-111.5 -80t-71 -107.5t-36 -128.5t-10.5 -149.5v-382zM358 500v415q0 117 30 195t90.5 120t135.5 58.5 t181 16.5h-87v-1180h88q-87 0 -149 8t-119.5 32t-93 65t-56 108.5t-20.5 161.5z" />
<glyph unicode="&#x153;" horiz-adv-x="1706" d="M166 312q0 -330 394 -330q121 0 193.5 40t116.5 119q42 -75 121.5 -117t192.5 -42q107 0 176.5 19t110.5 64t60.5 101.5t31.5 148.5h-120q-5 -49 -12 -83t-21.5 -59.5t-32 -40t-47.5 -23.5t-64 -12t-85 -3q-123 0 -181.5 59.5t-58.5 178.5v170h623v264q0 145 -98 224.5 t-281 79.5q-118 0 -194.5 -32t-119.5 -104q-89 136 -311 136q-186 0 -290 -90t-104 -234v-434zM303 293v471q0 193 257 193q244 0 244 -193v-471q0 -199 -244 -199q-126 0 -191.5 47.5t-65.5 151.5zM941 620v140q0 106 54.5 151.5t185.5 45.5q130 0 188 -37.5t58 -133.5 v-166h-486z" />
<glyph unicode="&#x178;" horiz-adv-x="1305" d="M66 1428l514 -859v-569h144v569l515 859h-151l-437 -753l-432 753h-153zM390 1598h171v150h-171v-150zM769 1598h171v150h-171v-150z" />
<glyph unicode="&#x2c6;" horiz-adv-x="512" d="M-8 1206h150l116 144l108 -144h146l-203 246h-105z" />
<glyph unicode="&#x2dc;" horiz-adv-x="364" d="M-97 1408q0 -110 40.5 -153t127.5 -43q43 0 81 15.5t60 34.5t45 37.5t39 22.5q10 2 13 2q29 0 47.5 -28t18.5 -71h84q0 101 -41.5 148t-125.5 47q-45 0 -82.5 -17t-59 -38t-47 -38t-48.5 -17q-31 0 -49.5 27t-18.5 71h-84z" />
<glyph unicode="&#x2000;" horiz-adv-x="981" />
<glyph unicode="&#x2001;" horiz-adv-x="1962" />
<glyph unicode="&#x2002;" horiz-adv-x="981" />
<glyph unicode="&#x2003;" horiz-adv-x="1962" />
<glyph unicode="&#x2004;" horiz-adv-x="654" />
<glyph unicode="&#x2005;" horiz-adv-x="490" />
<glyph unicode="&#x2006;" horiz-adv-x="327" />
<glyph unicode="&#x2007;" horiz-adv-x="327" />
<glyph unicode="&#x2008;" horiz-adv-x="245" />
<glyph unicode="&#x2009;" horiz-adv-x="392" />
<glyph unicode="&#x200a;" horiz-adv-x="109" />
<glyph unicode="&#x2010;" horiz-adv-x="1058" d="M197 521h614v101h-614v-101z" />
<glyph unicode="&#x2011;" horiz-adv-x="1058" d="M197 521h614v101h-614v-101z" />
<glyph unicode="&#x2012;" horiz-adv-x="1058" d="M197 521h614v101h-614v-101z" />
<glyph unicode="&#x2013;" horiz-adv-x="433" d="M-74 702h577v102h-577v-102z" />
<glyph unicode="&#x2014;" horiz-adv-x="1185" d="M1 413h1182v130h-1182v-130z" />
<glyph unicode="&#x2018;" horiz-adv-x="706" d="M334 932h218v208h-126q0 31 7.5 61.5t16 51.5t26.5 48t26.5 38.5t30 36.5t24.5 28l-65 43q-158 -150 -158 -356v-159z" />
<glyph unicode="&#x2019;" horiz-adv-x="730" d="M149 975l65 -43q158 150 158 355v159h-218v-207h126q0 -31 -7.5 -61.5t-16 -51.5t-26.5 -48t-26.5 -38.5t-30 -36.5t-24.5 -28z" />
<glyph unicode="&#x201a;" horiz-adv-x="706" d="M125 -265l65 -42q158 147 158 355v159h-218v-207h126q0 -31 -7.5 -61t-16 -51.5t-26 -48.5t-27 -39t-30 -36t-24.5 -29z" />
<glyph unicode="&#x201c;" horiz-adv-x="1104" d="M358 925h218v207h-126q0 31 7.5 61.5t16 51.5t26.5 48.5t26.5 39t30.5 36.5t24 28l-65 43q-158 -150 -158 -356v-159zM732 925h218v207h-127q0 27 4.5 52t14.5 48.5t18.5 41t24.5 38.5t24 31t25 30t21 24l-65 43q-158 -150 -158 -356v-159z" />
<glyph unicode="&#x201d;" horiz-adv-x="1080" d="M125 967l65 -42q158 147 158 355v159h-218v-207h126q0 -31 -7.5 -61t-16 -51.5t-26 -48.5t-27 -39t-30 -36t-24.5 -29zM498 967l66 -42q157 148 157 355v159h-218v-207h127q0 -31 -7.5 -61.5t-16 -51t-26.5 -48.5t-26.5 -39t-31 -36.5t-24.5 -28.5z" />
<glyph unicode="&#x201e;" horiz-adv-x="1066" d="M125 -265l65 -42q158 147 158 355v159h-218v-207h126q0 -31 -7.5 -61t-16 -51.5t-26 -48.5t-27 -39t-30 -36t-24.5 -29zM484 -265l66 -42q157 148 157 355v159h-218v-207h127q0 -31 -7.5 -61.5t-16 -51t-26.5 -48.5t-26.5 -39t-31 -36.5t-24.5 -28.5z" />
<glyph unicode="&#x2022;" horiz-adv-x="946" d="M173 534q0 -80 12 -131t44.5 -89t91 -54.5t150.5 -16.5t151.5 16.5t92.5 54.5t45.5 89.5t12.5 130.5q0 81 -12 132.5t-45 89.5t-92 54.5t-152 16.5q-91 0 -149.5 -16.5t-91.5 -54.5t-45.5 -90t-12.5 -132z" />
<glyph unicode="&#x2026;" horiz-adv-x="1934" d="M234 0h231v217h-231v-217zM879 0h231v217h-231v-217zM1525 0h231v217h-231v-217z" />
<glyph unicode="&#x202f;" horiz-adv-x="392" />
<glyph unicode="&#x2039;" horiz-adv-x="768" d="M164 530l270 -450l90 50l-207 400l207 400l-97 50z" />
<glyph unicode="&#x203a;" horiz-adv-x="768" d="M214 130l90 -50l270 450l-263 450l-97 -50l207 -400z" />
<glyph unicode="&#x205f;" horiz-adv-x="490" />
<glyph unicode="&#x20ac;" horiz-adv-x="1442" d="M-26 516h742v104h-742v-104zM-26 838h742v104h-742v-104zM190 487q0 -98 13.5 -171.5t50.5 -139t98 -107t160 -65.5t233 -24q128 0 217.5 16.5t147 47.5t90 85t45 117.5t13.5 156.5v10h-131v-11q0 -53 -5 -94t-17 -72.5t-26.5 -53.5t-40.5 -37t-51 -24t-65.5 -13.5 t-77.5 -6t-93 -1.5q-110 0 -183 15t-128 54t-80 109.5t-25 177.5v500q0 108 24.5 180t76.5 114.5t125.5 60.5t180.5 18q53 0 86.5 -1t73.5 -4t63.5 -9.5t50.5 -17.5t42 -27t30.5 -39t22.5 -53.5t11.5 -69.5t4.5 -89v-10l131 7v10q0 119 -24.5 196.5t-84.5 129.5t-158 74 t-249 22q-135 0 -233.5 -26t-159 -70t-97 -113.5t-49.5 -145t-13 -175.5v-431z" />
<glyph unicode="&#x2122;" horiz-adv-x="1843" d="M133 1350h230v-584h99v584h230v96h-559v-96zM857 766h101v617l191 -452h161l184 452v-617h103v680h-184l-186 -455l-184 455h-186v-680z" />
<glyph unicode="&#x25fc;" horiz-adv-x="1050" d="M0 0v1050h1050v-1050h-1050z" />
<glyph unicode="&#xfb03;" horiz-adv-x="2142" d="M112 940h197v-940h138v940h282v112h-282v219q0 128 161 128h135l-15 99h-115q-152 0 -228 -50.5t-76 -168.5v-227h-197v-112zM922 940h197v-940h138v940h282v112h-282v219q0 128 161 128h135l-15 99h-115q-152 0 -228 -50.5t-76 -168.5v-227h-197v-112zM1799 0h150v1052 h-150v-1052zM1803 1243h138v180h-138v-180z" />
<glyph unicode="&#xfb04;" horiz-adv-x="2261" d="M112 940h197v-940h138v940h282v112h-282v219q0 128 161 128h135l-15 99h-115q-152 0 -228 -50.5t-76 -168.5v-227h-197v-112zM922 940h197v-940h138v940h282v112h-282v219q0 128 161 128h135l-15 99h-115q-152 0 -228 -50.5t-76 -168.5v-227h-197v-112zM1796 361 q0 -71 6.5 -125t18 -93t32.5 -66t44.5 -43.5t60.5 -25t73.5 -11.5t90.5 -3h18l23 132h-33q-44 0 -71.5 2.5t-51.5 11.5t-36.5 23t-21.5 41t-12 62t-3 89v1144h-138v-1138z" />
</font>
</defs>
</svg>
